<svg width="161" height="256" viewBox="0 0 161 256" fill="none" xmlns="http://www.w3.org/2000/svg">
<path fill-rule="evenodd" clip-rule="evenodd" d="M0 1.23978e-05L8.05 8.05001L16.1 1.23978e-05L16.1 0H16.1016L16.1016 1.23978e-05L24.1516 8.05001L32.2004 0.00122356L40.2492 8.05001L48.2992 1.23978e-05H48.3008L56.3508 8.05001L64.3996 0.00122547L72.4484 8.05001L80.4984 1.23978e-05H80.5L88.55 8.05001L96.6 1.23978e-05H96.6016L104.652 8.05001L112.7 0.00122166L120.749 8.05001L128.799 1.23978e-05H128.801L136.851 8.05001L144.9 0.00122547L152.948 8.05001L160.998 1.23978e-05L161 0V256H160.948L152.948 248L144.948 256H144.851L136.851 248L128.851 256H128.749L120.749 248L112.749 256H112.652L104.652 248L96.6516 256H96.55L88.55 248L80.55 256H80.4484L72.4484 248L64.4484 256H64.3508L56.3508 248L48.3508 256H48.2492L40.2492 248L32.2492 256H32.1516L24.1516 248L16.1516 256H16.05L8.05 248L0.0499879 256H0V1.23978e-05Z" fill="#F5F5F5"/>
</svg>
