<svg width="297" height="306" viewBox="0 0 297 306" fill="none" xmlns="http://www.w3.org/2000/svg">
<g clip-path="url(#clip0_204_15618)">
<path d="M188.754 70.9458C188.838 70.7517 188.862 70.5374 188.824 70.3296C188.786 70.1218 188.687 69.9299 188.54 69.7781C188.392 69.6263 188.203 69.5214 187.996 69.4766C187.789 69.4317 187.574 69.4489 187.377 69.5261C187.179 69.6032 187.009 69.7369 186.888 69.9101C186.767 70.0834 186.7 70.2885 186.696 70.4997C186.691 70.7109 186.749 70.9186 186.863 71.0969C186.977 71.2751 187.141 71.4158 187.335 71.5012C187.597 71.6148 187.893 71.6201 188.16 71.516C188.426 71.4119 188.639 71.2068 188.754 70.9458Z" fill="#E0E0E0"/>
<path d="M148.43 28.5437C148.61 28.7629 148.871 28.9017 149.153 28.9296C149.436 28.9576 149.718 28.8724 149.938 28.6927C150.158 28.5131 150.297 28.2537 150.325 27.9717C150.353 27.6897 150.268 27.4082 150.088 27.189C149.999 27.0805 149.889 26.9905 149.765 26.9243C149.641 26.8581 149.505 26.8169 149.365 26.8031C149.225 26.7892 149.083 26.803 148.949 26.8437C148.814 26.8843 148.689 26.951 148.58 27.04C148.471 27.1289 148.381 27.2384 148.314 27.3621C148.248 27.4858 148.207 27.6213 148.193 27.761C148.179 27.9006 148.193 28.0416 148.233 28.1759C148.274 28.3102 148.341 28.4352 148.43 28.5437Z" fill="#E0E0E0"/>
<path d="M295.518 28.8823H235.18V116.098H295.518V28.8823Z" fill="#E0E0E0"/>
<path d="M292.495 28.8823H232.156V116.098H292.495V28.8823Z" fill="#F5F5F5"/>
<path d="M284.996 38.3313H239.648V106.656H284.996V38.3313Z" fill="white"/>
<path d="M285.005 106.656C285.005 106.656 285.005 106.54 285.005 106.324C285.005 106.107 285.005 105.775 285.005 105.355C285.005 104.495 285.005 103.242 285.005 101.609C285.005 98.331 285.005 93.5624 284.964 87.534C284.964 75.4839 284.924 58.4079 284.896 38.3312L285.046 38.487H239.698L239.861 38.3177C239.861 64.0977 239.861 87.8591 239.827 106.642L239.698 106.513L272.704 106.581H281.819H284.217H285.046C285.046 106.581 284.774 106.581 284.244 106.581H281.874H272.785L239.698 106.656H239.562V106.52C239.562 87.7372 239.562 63.9757 239.562 38.1958V38.0332H239.726H285.073H285.222V38.1822C285.188 58.3131 285.168 75.4365 285.148 87.4798C285.148 93.4947 285.114 98.2565 285.107 101.521C285.107 103.14 285.107 104.386 285.107 105.24C285.107 105.653 285.107 105.971 285.107 106.195C285.107 106.419 285.005 106.656 285.005 106.656Z" fill="#E0E0E0"/>
<path d="M292.668 28.8892C292.358 29.4394 291.999 29.9608 291.595 30.4471C290.916 31.3818 289.897 32.6552 288.762 34.0303C287.628 35.4053 286.568 36.6177 285.78 37.4847C285.372 37.9787 284.917 38.4324 284.422 38.8394C284.762 38.3094 285.146 37.8087 285.57 37.3425L288.477 33.827L291.377 30.3116C291.767 29.8021 292.198 29.3262 292.668 28.8892Z" fill="#E0E0E0"/>
<path d="M285.234 106.439C287.488 110.014 290.14 113.322 293.141 116.301L285.234 106.439Z" fill="white"/>
<path d="M293.14 116.301C292.643 115.934 292.188 115.513 291.782 115.048C290.731 113.982 289.736 112.863 288.8 111.695C287.859 110.528 286.982 109.311 286.171 108.051C285.807 107.549 285.499 107.008 285.254 106.439C285.661 106.904 286.031 107.4 286.361 107.922C287.04 108.857 287.964 110.131 289.078 111.492C290.192 112.853 291.204 114.039 291.972 114.879C292.394 115.325 292.785 115.8 293.14 116.301Z" fill="#E0E0E0"/>
<path d="M232.152 116.023L240.052 106.297L232.152 116.023Z" fill="white"/>
<path d="M240.052 106.31C238.869 108.033 237.592 109.691 236.228 111.275C234.952 112.924 233.592 114.507 232.152 116.017C233.334 114.292 234.611 112.635 235.977 111.052C237.253 109.403 238.613 107.82 240.052 106.31Z" fill="#E0E0E0"/>
<path d="M232.156 28.8892C233.516 30.3445 234.797 31.8707 235.994 33.4613C237.27 34.9779 238.465 36.5606 239.574 38.2027C238.21 36.7514 236.929 35.225 235.736 33.6306C234.457 32.116 233.262 30.5332 232.156 28.8892Z" fill="#E0E0E0"/>
<path d="M270.869 52.2036H255.688V95.1951H270.869V52.2036Z" fill="#E0E0E0"/>
<path d="M62.9271 32.7178L58.0977 32.7439L58.2276 56.6947L63.0571 56.6686L62.9271 32.7178Z" fill="#E0E0E0"/>
<path d="M28.7756 32.7802L16.2773 32.8477L16.3491 46.0693L28.8473 46.0019L28.7756 32.7802Z" fill="#EBEBEB"/>
<path d="M41.217 32.7131L28.7188 32.7805L28.7905 46.0022L41.2887 45.9348L41.217 32.7131Z" fill="#F5F5F5"/>
<path d="M16.2957 36.5024C24.6053 36.5701 32.9195 36.5317 41.2381 36.3872C41.2681 36.3804 41.2949 36.3636 41.3141 36.3396C41.3333 36.3156 41.3438 36.2859 41.3438 36.2552C41.3438 36.2245 41.3333 36.1947 41.3141 36.1707C41.2949 36.1467 41.2681 36.1299 41.2381 36.1231C32.924 36.096 24.6166 36.096 16.2957 36.2789C16.2659 36.2789 16.2374 36.2906 16.2164 36.3116C16.1954 36.3326 16.1836 36.361 16.1836 36.3906C16.1836 36.4203 16.1954 36.4487 16.2164 36.4697C16.2374 36.4906 16.2659 36.5024 16.2957 36.5024Z" fill="#E0E0E0"/>
<path d="M31.1946 45.7857L8.48047 45.9082L8.53894 56.6847L31.2531 56.5621L31.1946 45.7857Z" fill="#EBEBEB"/>
<path d="M53.7923 45.6638L31.0781 45.7864L31.1366 56.5629L53.8507 56.4403L53.7923 45.6638Z" fill="#F5F5F5"/>
<path d="M8.4988 48.9048C23.5852 49.0741 38.7259 48.9048 53.8123 48.6813C53.8423 48.6744 53.8691 48.6576 53.8883 48.6336C53.9075 48.6097 53.918 48.5799 53.918 48.5492C53.918 48.5185 53.9075 48.4887 53.8883 48.4647C53.8691 48.4407 53.8423 48.4239 53.8123 48.4171C38.7259 48.3358 23.5784 48.3494 8.4988 48.6813C8.46907 48.6813 8.44057 48.693 8.41955 48.714C8.39853 48.7349 8.38672 48.7634 8.38672 48.793C8.38672 48.8227 8.39853 48.8511 8.41955 48.872C8.44057 48.893 8.46907 48.9048 8.4988 48.9048Z" fill="#E0E0E0"/>
<path d="M87.9914 56.6807H0V60.5416H87.9914V56.6807Z" fill="#E0E0E0"/>
<path d="M17.9792 58.5366H14.4062V71.7111H17.9792V58.5366Z" fill="#E0E0E0"/>
<path d="M71.3034 58.5366H67.7305V71.7111H71.3034V58.5366Z" fill="#E0E0E0"/>
<path d="M67.6342 23.7852L62.8047 23.8113L62.9834 56.7571L67.8129 56.7311L67.6342 23.7852Z" fill="#EBEBEB"/>
<path d="M75.1708 29.9219L67.6719 29.9624L67.8167 56.6564L75.3156 56.6159L75.1708 29.9219Z" fill="#F5F5F5"/>
<path d="M75.1201 35.0665C73.8749 35.1971 72.6219 35.2401 71.3706 35.1952C70.1193 35.2401 68.8664 35.1971 67.6211 35.0665C68.8664 34.936 70.1193 34.893 71.3706 34.9378C72.6219 34.893 73.8749 34.936 75.1201 35.0665Z" fill="#E0E0E0"/>
<path d="M75.1201 33.9422C73.8752 34.0772 72.6221 34.1225 71.3706 34.0776C70.1191 34.1225 68.866 34.0772 67.6211 33.9422C68.8666 33.8157 70.1193 33.7727 71.3706 33.8135C72.6219 33.7727 73.8746 33.8157 75.1201 33.9422Z" fill="#E0E0E0"/>
<path d="M75.1201 52.6031C73.8749 52.7337 72.6219 52.7767 71.3706 52.7318C70.1193 52.7767 68.8664 52.7337 67.6211 52.6031C68.8664 52.4726 70.1193 52.4296 71.3706 52.4744C72.6219 52.4296 73.8749 52.4726 75.1201 52.6031Z" fill="#E0E0E0"/>
<path d="M75.1201 51.4788C73.8752 51.6138 72.6221 51.6591 71.3706 51.6143C70.1191 51.6591 68.866 51.6138 67.6211 51.4788C68.8666 51.3523 70.1193 51.3093 71.3706 51.3501C72.6219 51.3093 73.8746 51.3523 75.1201 51.4788Z" fill="#E0E0E0"/>
<path d="M71.4845 49.0334C71.4166 49.0334 71.3555 46.324 71.3555 43.0185C71.3555 39.7131 71.4166 37.0037 71.4845 37.0037C71.5525 37.0037 71.6136 39.7131 71.6136 43.0185C71.6136 46.324 71.566 49.0334 71.4845 49.0334Z" fill="#E0E0E0"/>
<path d="M83.3639 36.4753H75.1992V56.6265H83.3639V36.4753Z" fill="#EBEBEB"/>
<path d="M66.5334 29.4174C66.5334 29.6854 66.4538 29.9473 66.3045 30.1701C66.1552 30.3929 65.943 30.5665 65.6948 30.669C65.4466 30.7716 65.1734 30.7984 64.9099 30.7461C64.6464 30.6938 64.4043 30.5648 64.2143 30.3754C64.0243 30.1859 63.8949 29.9445 63.8425 29.6817C63.7901 29.4189 63.817 29.1466 63.9198 28.899C64.0226 28.6515 64.1968 28.4399 64.4202 28.2911C64.6436 28.1422 64.9062 28.0627 65.1749 28.0627C65.5352 28.0627 65.8808 28.2055 66.1355 28.4595C66.3903 28.7136 66.5334 29.0582 66.5334 29.4174Z" fill="#E0E0E0"/>
<path d="M65.5707 33.2173H64.7148V52.813H65.5707V33.2173Z" fill="#E0E0E0"/>
<path d="M297.001 305.553C297.001 305.654 231.914 305.729 151.639 305.729C71.3641 305.729 6.27734 305.682 6.27734 305.553C6.27734 305.424 71.3505 305.377 151.639 305.377C231.928 305.377 297.001 305.458 297.001 305.553Z" fill="#263238"/>
<path d="M236.187 143.321H39.0586V149.613H236.187V143.321Z" fill="#E0E0E0"/>
<path d="M56.9494 305.871L50.5508 305.851V148.78H56.9494V305.871Z" fill="#E0E0E0"/>
<path d="M226.818 305.858H220.352L220.419 148.78H226.818V305.858Z" fill="#E0E0E0"/>
<path d="M115.453 85.4478C115.453 85.4478 150.639 122.208 150.021 130.37C149.403 138.532 141.523 140.293 138.956 139.974C136.388 139.656 117.036 118.177 117.036 118.177L115.453 85.4478Z" fill="#89C605"/>
<g opacity="0.4">
<path d="M115.453 85.4478C115.453 85.4478 150.639 122.208 150.021 130.37C149.403 138.532 141.523 140.293 138.956 139.974C136.388 139.656 117.036 118.177 117.036 118.177L115.453 85.4478Z" fill="black"/>
</g>
<path d="M134.203 267.052L143.74 298.888L154.465 293.083L148.372 263.937L134.203 267.052Z" fill="#FFBE9D"/>
<path d="M153.154 279.075L156.435 294.167C156.435 294.167 172.9 295.901 173.777 298.624L144.711 306L138.598 282.733L153.154 279.075Z" fill="#89C605"/>
<path d="M147.129 295.176C146.871 295.331 146.68 295.577 146.592 295.864C146.504 296.152 146.526 296.461 146.653 296.734C146.799 296.997 147.04 297.193 147.328 297.283C147.615 297.372 147.926 297.348 148.195 297.215C148.468 297.049 148.67 296.789 148.762 296.483C148.854 296.178 148.828 295.85 148.691 295.562C148.51 295.304 148.235 295.126 147.925 295.065C147.614 295.004 147.293 295.066 147.027 295.237" fill="#E0E0E0"/>
<g opacity="0.4">
<path d="M144.711 306L144.168 303.65L172.235 297.438C172.235 297.438 173.668 297.675 173.757 298.617L144.711 306Z" fill="black"/>
</g>
<path d="M156.871 293.875C156.905 294.018 156.192 294.262 155.628 294.898C155.064 295.535 154.827 296.219 154.684 296.192C154.541 296.165 154.541 295.298 155.254 294.546C155.968 293.794 156.871 293.74 156.871 293.875Z" fill="#263238"/>
<path d="M160.238 294.356C160.306 294.485 159.756 294.885 159.423 295.603C159.091 296.321 159.118 296.991 158.975 297.025C158.832 297.059 158.54 296.273 158.975 295.386C159.41 294.498 160.205 294.221 160.238 294.356Z" fill="#263238"/>
<path d="M162.901 297.554C162.778 297.615 162.405 296.957 162.568 296.09C162.731 295.223 163.322 294.736 163.41 294.851C163.498 294.966 163.193 295.474 163.07 296.206C162.948 296.937 163.043 297.506 162.901 297.554Z" fill="#263238"/>
<path d="M155.714 290.523C155.714 290.672 154.98 290.638 154.192 290.895C153.404 291.153 152.834 291.572 152.739 291.464C152.644 291.356 153.106 290.705 154.043 290.414C154.98 290.123 155.782 290.394 155.714 290.523Z" fill="#263238"/>
<path d="M155.034 287.495C154.59 287.748 154.085 287.875 153.574 287.861C153.024 287.901 152.472 287.874 151.93 287.779C151.609 287.73 151.293 287.653 150.986 287.549C150.798 287.504 150.619 287.428 150.456 287.325C150.337 287.249 150.246 287.134 150.2 287C150.153 286.867 150.152 286.721 150.198 286.587C150.243 286.47 150.315 286.366 150.408 286.282C150.501 286.199 150.613 286.139 150.734 286.106C150.92 286.056 151.112 286.034 151.305 286.039C151.633 286.037 151.96 286.064 152.283 286.12C152.831 286.213 153.361 286.394 153.852 286.655C154.688 287.109 155.054 287.576 155.014 287.617C154.973 287.657 154.518 287.319 153.703 286.98C153.225 286.786 152.726 286.651 152.215 286.58C151.915 286.543 151.613 286.529 151.312 286.54C150.986 286.54 150.721 286.601 150.68 286.756C150.639 286.912 150.68 286.838 150.755 286.912C150.874 286.988 151.005 287.045 151.142 287.082C151.429 287.178 151.722 287.257 152.018 287.319C152.528 287.426 153.046 287.487 153.567 287.502C154.055 287.468 154.545 287.466 155.034 287.495Z" fill="#263238"/>
<path d="M154.886 287.745C154.845 287.779 154.43 287.346 154.145 286.445C153.981 285.915 153.91 285.36 153.935 284.806C153.95 284.474 153.998 284.146 154.077 283.824C154.109 283.612 154.194 283.412 154.325 283.243C154.456 283.073 154.628 282.94 154.824 282.855C154.95 282.829 155.08 282.838 155.2 282.882C155.321 282.927 155.426 283.004 155.504 283.106C155.622 283.256 155.718 283.422 155.789 283.6C155.926 283.911 156.011 284.243 156.04 284.582C156.101 285.144 156.019 285.712 155.803 286.235C155.429 287.136 154.879 287.454 154.858 287.407C155.085 286.99 155.287 286.56 155.463 286.12C155.608 285.639 155.648 285.133 155.578 284.636C155.536 284.349 155.453 284.068 155.334 283.803C155.212 283.505 155.028 283.288 154.926 283.349C154.824 283.41 154.593 283.681 154.539 283.952C154.457 284.24 154.402 284.535 154.376 284.833C154.333 285.34 154.363 285.851 154.464 286.35C154.668 287.217 154.96 287.705 154.886 287.745Z" fill="#263238"/>
<path d="M108.301 176.308C108.654 177.717 133.569 279.096 133.569 279.096L156.195 272.282L134.833 169.595L108.301 176.308Z" fill="#263238"/>
<path d="M104.966 46.7644L101.013 77.0556C100.854 78.2761 100.946 79.5159 101.282 80.7C101.619 81.8841 102.193 82.9878 102.969 83.9441C103.746 84.9005 104.71 85.6896 105.801 86.2636C106.893 86.8376 108.09 87.1846 109.32 87.2836C111.654 87.4698 113.97 86.7535 115.789 85.2831C117.607 83.8127 118.789 81.701 119.088 79.3857C119.38 77.103 119.632 75.2064 119.679 74.9693C119.679 74.9693 127.511 75.2538 129.06 67.6946C129.814 64.0369 130.744 56.3896 131.512 49.4603C131.906 45.8693 130.93 42.2619 128.777 39.3562C126.625 36.4505 123.454 34.4596 119.896 33.7796L119.163 33.6374C111.168 32.5807 105.809 38.7649 104.966 46.7644Z" fill="#FFBE9D"/>
<path d="M119.715 74.8677C116.19 74.2487 112.929 72.5982 110.348 70.1262C110.348 70.1262 111.638 76.0259 119.355 76.7981L119.715 74.8677Z" fill="#EB996E"/>
<path d="M129.339 53.7411C129.286 54.0227 129.125 54.2727 128.891 54.4383C128.656 54.6038 128.367 54.672 128.083 54.6284C127.806 54.5882 127.556 54.4402 127.388 54.2168C127.22 53.9934 127.147 53.7128 127.186 53.4363C127.237 53.1539 127.398 52.9028 127.633 52.7369C127.868 52.5711 128.158 52.5036 128.443 52.549C128.72 52.5892 128.97 52.7372 129.138 52.9606C129.306 53.184 129.378 53.4646 129.339 53.7411Z" fill="#263238"/>
<path d="M129.399 52.4337C129.243 52.5488 128.537 51.7563 127.361 51.5666C126.186 51.377 125.222 51.7631 125.127 51.5666C125.032 51.3702 125.263 51.2618 125.684 51.0654C126.258 50.8158 126.896 50.7473 127.511 50.869C128.119 50.9799 128.674 51.2841 129.094 51.736C129.406 52.1085 129.481 52.3862 129.399 52.4337Z" fill="#263238"/>
<path d="M117.594 52.0747C117.541 52.3581 117.38 52.6098 117.144 52.7766C116.908 52.9435 116.617 53.0124 116.331 52.9688C116.191 52.9529 116.055 52.9093 115.932 52.8405C115.809 52.7716 115.701 52.679 115.614 52.5679C115.527 52.4569 115.464 52.3297 115.427 52.1938C115.39 52.0579 115.381 51.9161 115.4 51.7767C115.453 51.4951 115.614 51.2451 115.849 51.0795C116.083 50.9139 116.373 50.8457 116.657 50.8893C116.797 50.9044 116.933 50.9472 117.056 51.0153C117.18 51.0833 117.288 51.1752 117.375 51.2856C117.463 51.396 117.527 51.5227 117.565 51.6581C117.602 51.7936 117.612 51.9353 117.594 52.0747Z" fill="#263238"/>
<path d="M117.725 50.605C117.562 50.7202 116.855 49.9277 115.687 49.738C114.519 49.5483 113.547 49.9344 113.445 49.738C113.343 49.5416 113.581 49.44 114.009 49.2368C114.581 48.9869 115.217 48.9183 115.83 49.0403C116.438 49.1545 116.994 49.458 117.419 49.9073C117.731 50.2799 117.806 50.5576 117.725 50.605Z" fill="#263238"/>
<path d="M120.215 60.3316C120.867 60.2494 121.526 60.2494 122.178 60.3316C122.477 60.3316 122.776 60.3316 122.857 60.1555C122.948 59.8575 122.948 59.5392 122.857 59.2411L122.409 56.8026C121.804 53.3482 121.431 50.5236 121.567 50.5033C121.702 50.483 122.314 53.2669 122.925 56.7214C123.061 57.5748 123.197 58.3876 123.326 59.1666C123.445 59.5595 123.421 59.9818 123.258 60.3587C123.194 60.4559 123.109 60.5375 123.009 60.5973C122.909 60.6571 122.797 60.6937 122.681 60.7042C122.509 60.7224 122.336 60.7224 122.164 60.7042C121.502 60.6562 120.848 60.5312 120.215 60.3316Z" fill="#263238"/>
<path d="M118.525 48.2341C118.349 48.5321 117.214 48.1596 115.808 48.058C114.402 47.9563 113.227 48.1189 113.091 47.8006C113.03 47.6515 113.281 47.3874 113.77 47.1706C114.437 46.8994 115.159 46.7925 115.876 46.859C116.596 46.9063 117.295 47.1246 117.914 47.4957C118.396 47.8006 118.607 48.0918 118.525 48.2341Z" fill="#263238"/>
<path d="M129.943 48.2004C129.684 48.4239 128.93 47.9904 127.966 47.7939C127.001 47.5975 126.145 47.6314 126.01 47.3198C125.955 47.1708 126.132 46.9269 126.539 46.7441C127.075 46.534 127.662 46.4863 128.225 46.6067C128.788 46.7272 129.302 47.0106 129.705 47.4214C129.997 47.7939 130.058 48.0852 129.943 48.2004Z" fill="#263238"/>
<path d="M104.512 52.4947C104.389 52.4134 99.5871 49.9546 98.7516 55.1634C97.9161 60.3723 103.337 60.1352 103.371 59.9862C103.405 59.8372 104.512 52.4947 104.512 52.4947Z" fill="#FFBE9D"/>
<path d="M102.085 57.7713C102.085 57.7713 101.99 57.8187 101.82 57.8661C101.707 57.8963 101.588 57.9034 101.471 57.8871C101.355 57.8709 101.242 57.8315 101.141 57.7713C100.618 57.4868 100.292 56.5385 100.421 55.5902C100.479 55.141 100.636 54.7105 100.883 54.3303C100.957 54.1755 101.069 54.0414 101.207 53.9398C101.346 53.8382 101.508 53.7722 101.678 53.7478C101.786 53.737 101.895 53.7642 101.986 53.8248C102.076 53.8854 102.143 53.9755 102.174 54.0797C102.221 54.2355 102.174 54.3371 102.174 54.3507C102.174 54.3642 102.296 54.2761 102.289 54.0594C102.28 53.9235 102.225 53.7947 102.133 53.6936C102.003 53.5671 101.832 53.4924 101.651 53.4836C101.428 53.4948 101.211 53.563 101.022 53.6816C100.833 53.8002 100.677 53.9653 100.571 54.161C100.277 54.577 100.091 55.0584 100.027 55.5631C99.8914 56.6198 100.272 57.69 100.992 58.0287C101.126 58.0906 101.272 58.1226 101.42 58.1226C101.568 58.1226 101.714 58.0906 101.848 58.0287C102.051 57.8864 102.106 57.7713 102.085 57.7713Z" fill="#EB996E"/>
<path d="M101.651 51.7632C102.152 51.8255 102.626 52.0223 103.023 52.3325C103.42 52.6426 103.726 53.0546 103.906 53.5243C104.103 54.3236 104.015 55.177 104.205 55.9831C104.395 56.7891 105.034 57.6019 105.862 57.5681C106.148 57.5344 106.419 57.4266 106.649 57.2554C106.879 57.0842 107.06 56.8556 107.173 56.5927C107.392 56.0639 107.507 55.4983 107.513 54.9264C107.669 52.4473 107.622 49.9479 107.995 47.4756C108.268 44.9822 109.275 42.6252 110.889 40.702C112.574 38.8732 115.223 37.803 117.62 38.4668C119.21 38.9003 120.528 40.0247 122.09 40.5598C123.021 40.8685 124.009 40.9618 124.982 40.8327C125.954 40.7036 126.884 40.3555 127.701 39.8147C127.791 39.7563 127.886 39.7065 127.986 39.6657C128.27 39.5359 128.503 39.3161 128.65 39.0405C128.796 38.765 128.847 38.449 128.794 38.1417C128.768 37.9428 128.696 37.7527 128.584 37.5862C125.969 34.064 120.392 32.1674 115.99 32.418C111.589 32.6687 107.072 34.8701 104.504 38.4532C101.936 42.0364 101.42 47.5975 101.651 51.7632Z" fill="#263238"/>
<path d="M122.568 63.8674C121.433 63.7023 120.346 63.3032 119.375 62.6956C119.951 62.7189 120.515 62.8619 121.032 63.1155C121.591 63.2581 122.113 63.514 122.568 63.8674Z" fill="#263238"/>
<path d="M128.246 69.7063C128.146 70.2202 127.925 70.703 127.601 71.1152C126.863 72.1426 125.89 72.9788 124.762 73.5536C123.644 74.1187 122.453 74.5246 121.223 74.7593C120.723 74.8982 120.206 74.9643 119.688 74.9558C120.166 74.7683 120.659 74.621 121.161 74.5155C122.349 74.2133 123.501 73.7865 124.599 73.2421C125.681 72.6871 126.634 71.9117 127.397 70.9662C127.974 70.2278 128.192 69.6792 128.246 69.7063Z" fill="#EB996E"/>
<path d="M124.562 73.574C122.721 74.4884 121.37 76.9607 120.201 78.5999C119.804 79.069 119.521 79.6229 119.373 80.2188C119.318 80.8668 119.433 81.518 119.706 82.1086C120.038 83.0095 120.385 83.8968 120.792 84.7774C120.901 85.0347 121.044 85.3125 121.315 85.3734C121.587 85.4344 121.94 85.116 122.083 84.7977C122.343 83.9725 122.487 83.1154 122.511 82.2508C122.534 81.8193 122.662 81.3999 122.884 81.0292C123.107 80.6585 123.417 80.3477 123.788 80.124" fill="#EB996E"/>
<path d="M127.472 80.3337L125.686 78.979C125.578 78.8899 125.44 78.8465 125.3 78.8578C125.16 78.8692 125.031 78.9346 124.939 79.04L123.988 80.1373L124.49 82.9077C125.075 86.4638 122.453 85.9083 122.453 85.9083L122.242 85.231L121.081 80.896C120.85 78.8233 121.013 78.5794 122.025 77.0825L124.239 73.926C124.462 73.5942 124.79 73.3468 125.171 73.2239C125.551 73.101 125.963 73.1097 126.338 73.2487C129.517 74.4205 136.371 76.5338 137.145 79.2229C138.551 84.1134 139.686 96.5969 139.706 96.834L129.999 97.7349L130.047 89.4103C129.193 88.8797 128.55 88.0708 128.226 87.1208C127.819 85.651 127.472 80.3473 127.472 80.3473" fill="#FFBE9D"/>
<path d="M134.174 81.9663C134.174 81.9663 134.072 82.1356 133.807 82.3592C133.429 82.6878 132.977 82.9202 132.489 83.0365C132.143 83.1143 131.783 83.1143 131.437 83.0365C131.026 82.9331 130.662 82.6944 130.404 82.3592C129.833 81.6818 129.725 80.72 129.249 80.0223C128.957 79.703 128.621 79.427 128.251 79.2027C127.902 78.9787 127.539 78.7773 127.164 78.5999C126.864 78.4206 126.522 78.3247 126.172 78.3221C125.877 78.4162 125.608 78.5761 125.384 78.7895C124.508 79.5956 124.026 80.2052 123.978 80.1442C123.931 80.0833 124.067 79.9749 124.27 79.6972C124.557 79.3063 124.873 78.9372 125.215 78.5931C125.463 78.3359 125.771 78.143 126.111 78.0309C126.219 78.0102 126.329 78.0102 126.437 78.0309C126.538 78.0485 126.638 78.0734 126.736 78.1054C126.93 78.1616 127.118 78.2341 127.3 78.3221C127.694 78.4923 128.073 78.6939 128.434 78.925C128.847 79.1652 129.218 79.4693 129.535 79.8259C130.105 80.6522 130.173 81.5937 130.655 82.1695C130.871 82.4213 131.151 82.6108 131.465 82.718C131.779 82.8253 132.117 82.8463 132.442 82.7791C132.902 82.6931 133.339 82.5132 133.726 82.2508C133.977 82.0611 134.154 81.946 134.174 81.9663Z" fill="#EB996E"/>
<path d="M133.104 84.9059C131.248 84.797 129.441 84.2763 127.812 83.3818C128.719 83.546 129.609 83.7862 130.475 84.0998C131.372 84.296 132.251 84.5656 133.104 84.9059Z" fill="#EB996E"/>
<path d="M129.657 80.3745C127.117 80.3745 126.818 80.2593 123.945 80.4151C123.515 80.4176 123.089 80.4862 122.681 80.6183C122.477 80.6858 122.291 80.8009 122.14 80.954C121.989 81.1071 121.876 81.2939 121.812 81.4989C121.615 82.2846 122.409 82.9958 123.17 83.1787C123.931 83.3616 124.8 83.2193 125.588 83.4022C126.84 83.6232 127.97 84.2841 128.774 85.2649C130.432 87.6018 132.17 86.4774 133.298 87.297L136.26 85.4275L135.214 81.0654L129.63 80.388" fill="#FFBE9D"/>
<path d="M133.584 87.3173C133.327 87.1987 133.055 87.1145 132.776 87.0667C131.975 87.0567 131.181 86.9172 130.425 86.6535C129.921 86.3994 129.48 86.0361 129.135 85.5901C128.788 85.0893 128.342 84.665 127.824 84.3437C127.245 84.0034 126.617 83.7522 125.963 83.5987C125.236 83.4865 124.503 83.4231 123.769 83.409C123.362 83.385 122.97 83.2444 122.641 83.0042C122.312 82.7639 122.06 82.4341 121.914 82.0543C121.859 81.8562 121.857 81.6473 121.907 81.4479C121.957 81.2485 122.058 81.0654 122.199 80.9164C122.453 80.644 122.781 80.453 123.144 80.3677C123.773 80.2661 124.409 80.214 125.046 80.2119C125.63 80.2119 126.18 80.2119 126.683 80.2119C127.688 80.2119 128.489 80.2796 129.046 80.3067C129.338 80.3013 129.629 80.324 129.916 80.3745C129.63 80.4336 129.338 80.4563 129.046 80.4422C128.489 80.4422 127.688 80.4422 126.683 80.4422C126.187 80.4422 125.643 80.4422 125.059 80.5032C124.444 80.5124 123.831 80.5713 123.225 80.6793C122.648 80.8012 122.057 81.3566 122.247 81.9527C122.379 82.2628 122.597 82.5292 122.874 82.7211C123.152 82.9129 123.479 83.0223 123.816 83.0365C124.563 83.051 125.307 83.1189 126.044 83.2397C126.735 83.4069 127.395 83.6812 128 84.0525C128.544 84.4028 129.008 84.8646 129.359 85.4072C129.671 85.83 130.072 86.1792 130.534 86.43C131.261 86.7003 132.022 86.8689 132.796 86.9312C133.015 86.9707 133.225 87.0511 133.414 87.1683C133.536 87.2564 133.591 87.3038 133.584 87.3173Z" fill="#EB996E"/>
<path d="M129.371 78.3965C129.371 78.3559 129.555 78.322 129.82 78.4372C129.991 78.5199 130.14 78.6433 130.252 78.7967C130.364 78.9501 130.437 79.1286 130.464 79.3167C130.491 79.5047 130.471 79.6965 130.406 79.875C130.341 80.0535 130.233 80.2134 130.091 80.3405C129.874 80.5302 129.691 80.5437 129.67 80.5031C129.65 80.4624 129.779 80.3676 129.908 80.178C130.072 79.9404 130.147 79.6524 130.119 79.3651C130.062 79.0956 129.91 78.8553 129.691 78.6878C129.514 78.5049 129.365 78.4507 129.371 78.3965Z" fill="#EB996E"/>
<path d="M135.058 191.941L122.668 222.781L134.684 224.887L148.099 198.288L135.058 191.941Z" fill="#FFBE9D"/>
<path d="M142.393 213.101L135.6 226.94C135.6 226.94 147.406 238.502 146.394 241.164L119.02 228.924L128.767 206.938L142.393 213.101Z" fill="#89C605"/>
<path d="M127.639 221.975C127.338 221.931 127.032 222.001 126.78 222.172C126.529 222.342 126.351 222.601 126.281 222.896C126.226 223.194 126.29 223.502 126.458 223.755C126.627 224.008 126.887 224.185 127.184 224.25C127.502 224.29 127.823 224.211 128.085 224.029C128.347 223.846 128.532 223.573 128.604 223.262C128.625 222.946 128.521 222.635 128.316 222.395C128.11 222.155 127.819 222.004 127.503 221.975" fill="#E0E0E0"/>
<g opacity="0.4">
<path d="M118.992 228.945L119.977 226.73L145.911 239.301C145.911 239.301 146.889 240.372 146.366 241.171L118.992 228.945Z" fill="black"/>
</g>
<path d="M136.076 226.994C136.014 227.129 135.315 226.892 134.466 227.028C133.617 227.163 133.012 227.563 132.917 227.455C132.822 227.346 133.359 226.669 134.391 226.52C135.424 226.371 136.157 226.886 136.076 226.994Z" fill="#263238"/>
<path d="M138.415 229.466C138.415 229.608 137.736 229.574 137.002 229.933C136.269 230.292 135.895 230.834 135.766 230.767C135.637 230.699 135.888 229.913 136.778 229.48C137.668 229.046 138.47 229.337 138.415 229.466Z" fill="#263238"/>
<path d="M138.508 233.618C138.372 233.618 138.508 232.846 139.188 232.264C139.867 231.681 140.621 231.674 140.628 231.81C140.634 231.945 140.071 232.162 139.527 232.643C138.984 233.124 138.644 233.666 138.508 233.618Z" fill="#263238"/>
<path d="M137.279 223.675C137.17 223.77 136.64 223.309 135.859 222.997C135.078 222.686 134.385 222.686 134.371 222.537C134.358 222.388 135.132 222.171 136.042 222.537C136.952 222.903 137.374 223.594 137.279 223.675Z" fill="#263238"/>
<path d="M138.612 220.857C138.112 220.773 137.643 220.558 137.253 220.234C136.798 219.928 136.383 219.566 136.017 219.157C135.799 218.915 135.599 218.657 135.419 218.385C135.3 218.232 135.208 218.06 135.148 217.877C135.101 217.744 135.102 217.599 135.149 217.466C135.196 217.333 135.286 217.22 135.406 217.145C135.514 217.082 135.635 217.044 135.76 217.036C135.885 217.028 136.01 217.049 136.126 217.098C136.3 217.177 136.462 217.28 136.608 217.403C136.869 217.607 137.113 217.834 137.335 218.08C137.703 218.496 138.003 218.967 138.225 219.475C138.48 219.921 138.586 220.435 138.53 220.945C138.449 220.945 138.327 220.403 137.899 219.631C137.652 219.181 137.346 218.767 136.988 218.398C136.776 218.184 136.549 217.985 136.309 217.802C136.051 217.599 135.807 217.484 135.677 217.586C135.548 217.687 135.616 217.64 135.637 217.748C135.684 217.881 135.75 218.007 135.834 218.121C136 218.376 136.179 218.622 136.37 218.859C136.704 219.256 137.072 219.623 137.471 219.956C138.143 220.518 138.646 220.783 138.612 220.857Z" fill="#263238"/>
<path d="M138.345 220.965C138.261 220.461 138.342 219.944 138.576 219.489C138.779 218.971 139.071 218.492 139.438 218.073C139.655 217.824 139.896 217.597 140.159 217.396C140.315 217.249 140.506 217.145 140.714 217.093C140.922 217.04 141.14 217.042 141.347 217.098C141.466 217.157 141.566 217.248 141.637 217.36C141.708 217.473 141.746 217.602 141.748 217.735C141.746 217.927 141.716 218.119 141.66 218.304C141.571 218.629 141.434 218.94 141.252 219.225C140.941 219.699 140.522 220.094 140.029 220.376C139.818 220.525 139.578 220.631 139.325 220.687C139.072 220.743 138.81 220.748 138.555 220.701C138.995 220.515 139.423 220.304 139.839 220.071C140.251 219.781 140.596 219.407 140.851 218.974C140.995 218.723 141.105 218.455 141.177 218.175C141.266 217.87 141.259 217.586 141.137 217.565C141.014 217.554 140.89 217.569 140.773 217.609C140.656 217.649 140.548 217.712 140.457 217.795C140.214 217.972 139.987 218.169 139.778 218.385C139.429 218.757 139.134 219.177 138.902 219.631C138.508 220.417 138.426 221.013 138.345 220.965Z" fill="#263238"/>
<path d="M111.345 154.958L149.492 136.344C152.762 134.747 156.461 134.245 160.039 134.912C163.618 135.58 166.885 137.381 169.354 140.049C171.66 142.542 173.159 145.671 173.654 149.027C174.15 152.382 173.62 155.809 172.132 158.859L146.823 210.758L125.65 204.079L144.269 164.522L123.321 180.44C117.664 184.734 110.765 187.086 103.656 187.145L98.1675 187.193C93.6486 187.005 89.2542 185.66 85.4079 183.288C81.5615 180.915 78.3928 177.594 76.207 173.646L111.345 154.958Z" fill="#263238"/>
<path d="M146.822 210.744C146.822 210.744 146.686 210.744 146.428 210.643L145.307 210.311L141.035 209.01L125.602 204.221L125.452 204.174L125.52 204.025C129.256 196.059 133.916 186.136 138.949 175.4C140.736 171.62 142.468 167.949 144.112 164.454L144.37 164.664C134.765 171.803 126.166 177.73 119.821 181.632C117.358 183.193 114.794 184.592 112.146 185.818C111.429 186.14 110.683 186.392 109.918 186.57C109.719 186.616 109.517 186.643 109.313 186.651H109.109C109.109 186.651 109.388 186.651 109.904 186.502C110.657 186.299 111.391 186.032 112.098 185.703C114.719 184.437 117.26 183.011 119.706 181.435C126.009 177.486 134.575 171.526 144.159 164.386L144.716 163.973L144.424 164.596C142.78 168.085 141.028 171.763 139.275 175.542C134.215 186.272 129.535 196.181 125.778 204.14L125.69 203.944L141.082 208.848L145.334 210.202L146.442 210.575L146.822 210.744Z" fill="#455A64"/>
<path d="M151.443 155.933C149.82 156.995 148.343 158.263 147.049 159.706C145.847 161.228 144.854 162.902 144.094 164.684C144.176 164.113 144.345 163.558 144.596 163.038C145.695 160.452 147.542 158.252 149.901 156.719C150.371 156.378 150.891 156.113 151.443 155.933Z" fill="#455A64"/>
<path d="M70.5701 229.371H125.441C125.807 229.369 126.159 229.51 126.423 229.763C126.687 230.016 126.841 230.361 126.854 230.726C126.858 230.914 126.825 231.101 126.756 231.277C126.687 231.452 126.584 231.612 126.452 231.747C126.321 231.882 126.164 231.989 125.99 232.063C125.816 232.136 125.63 232.175 125.441 232.176H70.5701C70.1966 232.174 69.839 232.025 69.5755 231.761C69.312 231.497 69.1641 231.139 69.1641 230.767C69.1659 230.396 69.3148 230.041 69.5783 229.78C69.8418 229.518 70.1984 229.371 70.5701 229.371Z" fill="#E0E0E0"/>
<path d="M118.227 194.535H75.3047C75.3047 193.446 75.5197 192.368 75.9376 191.362C76.3554 190.357 76.9678 189.443 77.7399 188.673C78.5119 187.903 79.4284 187.292 80.4372 186.875C81.4459 186.459 82.527 186.244 83.6188 186.244H109.906C110.999 186.243 112.081 186.457 113.09 186.874C114.1 187.29 115.017 187.9 115.79 188.67C116.562 189.44 117.175 190.355 117.594 191.361C118.012 192.367 118.227 193.446 118.227 194.535Z" fill="#455A64"/>
<path d="M119.572 194.535H74.293V197.048H119.572V194.535Z" fill="#E0E0E0"/>
<path d="M78.318 197.048L67.2461 305.871H69.8477L83.365 197.048H78.318Z" fill="#E0E0E0"/>
<path d="M115.204 197.048L126.269 305.824L123.668 305.837L110.164 197.089L115.204 197.048Z" fill="#E0E0E0"/>
<path d="M99.7771 196.093L97.9159 305.871H95.2465L94.0781 195.795L99.7771 196.093Z" fill="#E0E0E0"/>
<path d="M98.9141 76.7845L101.597 68.636L119.353 76.8319L118.538 85.4478L109.694 87.954L101.006 82.6436L98.9141 76.7845Z" fill="#89C605"/>
<path d="M76.2417 173.666C75.4533 173.109 74.8142 172.367 74.3807 171.506C73.9472 170.645 73.7325 169.691 73.7556 168.728C73.7556 165.463 76.6764 165.192 76.7715 163.384C77.7428 144.723 79.8621 106.066 81.2614 93.8672C83.0207 78.4913 101.089 75.2468 101.089 75.2468L115.999 78.8977V80.0222C121.161 86.6399 123.396 96.6172 123.403 105.003L122.723 149.424L76.2417 173.666Z" fill="#89C605"/>
<path d="M92.9721 148.787C92.8105 149.056 92.6241 149.31 92.4151 149.546C92.0483 150.02 91.4846 150.69 90.7781 151.503C89.3653 153.135 87.3343 155.323 84.9433 157.599C82.5523 159.875 80.27 161.799 78.5718 163.126C77.7159 163.804 77.0231 164.319 76.534 164.671C76.2906 164.87 76.0265 165.043 75.7461 165.186C75.951 164.956 76.1786 164.747 76.4254 164.562L78.3884 162.937C80.0458 161.582 82.301 159.611 84.6784 157.342C87.0558 155.073 89.1139 152.925 90.5744 151.34L92.2929 149.451C92.4953 149.206 92.723 148.984 92.9721 148.787Z" fill="#263238"/>
<g opacity="0.2">
<path d="M78.2773 163.323C78.3317 160.512 80.4442 158.195 82.5363 156.305C84.981 154.09 87.5825 152.052 90.3206 150.209C90.4565 151.564 89.5191 152.803 88.6089 153.847C85.5492 157.33 82.1649 160.517 78.5015 163.363" fill="black"/>
</g>
<path d="M104.383 75.4367C104.449 74.626 104.634 73.8294 104.933 73.0727C105.116 72.2822 105.414 71.5224 105.816 70.8171C105.75 71.6278 105.565 72.4244 105.266 73.1811C105.079 73.9705 104.782 74.7298 104.383 75.4367Z" fill="#263238"/>
<path d="M111.305 73.1267C111.304 73.9238 111.183 74.7162 110.945 75.4771C110.83 76.2623 110.601 77.0267 110.266 77.7462C110.267 76.9492 110.388 76.1569 110.626 75.3958C110.741 74.6106 110.969 73.8462 111.305 73.1267Z" fill="#263238"/>
<path d="M116.459 75.6941C116.481 76.41 116.419 77.126 116.276 77.8277C116.253 78.5462 116.148 79.2598 115.963 79.9546C115.809 79.2403 115.809 78.5015 115.963 77.7871C115.982 77.0628 116.151 76.3502 116.459 75.6941Z" fill="#263238"/>
<path d="M98.5409 119.166C98.2951 119.216 98.044 119.234 97.7937 119.221C97.3046 119.221 96.605 119.221 95.7559 119.221C94.0238 119.221 91.6328 119.221 88.9633 119.146C86.2938 119.072 83.9232 119.031 82.1707 118.963C81.3012 118.963 80.6016 118.902 80.1329 118.868C79.8791 118.874 79.6255 118.847 79.3789 118.787C79.6277 118.743 79.8804 118.725 80.1329 118.733C80.622 118.733 81.3216 118.733 82.1707 118.733C83.9028 118.733 86.2938 118.733 88.9633 118.807C91.6328 118.882 94.0034 118.916 95.7559 118.983L97.7937 119.078C98.0456 119.074 98.2969 119.104 98.5409 119.166Z" fill="#FAFAFA"/>
<path d="M94.7565 113.483C94.7565 113.585 91.3602 113.585 87.1488 113.483C82.9374 113.382 79.5547 113.246 79.5547 113.145C79.5547 113.043 82.951 113.043 87.1556 113.145C91.3602 113.246 94.7565 113.389 94.7565 113.483Z" fill="#FAFAFA"/>
<g opacity="0.2">
<path d="M88.2969 104.725C93.731 116.525 100.374 127.119 108.097 137.563C110.088 140.273 112.22 142.982 115.094 144.669C117.967 146.355 119.849 145.908 122.749 144.181C119.536 143.158 118.673 142.826 115.956 140.869C113.307 138.805 110.995 136.344 109.103 133.574C102.31 124.253 95.6804 114.655 88.8743 105.335" fill="black"/>
</g>
<path d="M144.793 121.503C144.867 120.72 145.081 119.956 145.425 119.248C145.599 118.893 145.864 118.591 146.194 118.372C146.523 118.154 146.904 118.025 147.299 118.001C147.494 117.999 147.687 118.04 147.865 118.119C148.043 118.198 148.202 118.314 148.331 118.46C148.46 118.606 148.556 118.778 148.612 118.964C148.669 119.15 148.684 119.346 148.658 119.539C148.488 119.97 148.232 120.362 147.904 120.69C147.041 121.869 147.123 123.461 147.13 124.917C147.136 126.373 146.953 128.04 145.771 128.913" fill="#FFBE9D"/>
<path d="M90.8989 87.5002C89.5373 88.4489 88.3818 89.6622 87.5019 91.0671C86.6219 92.472 86.0356 94.0397 85.7781 95.6761C85.5205 97.3125 85.5971 98.9839 86.0031 100.59C86.4092 102.196 87.1364 103.704 88.1411 105.023L112.961 137.617C115.577 141.01 119.288 143.396 123.466 144.373C127.644 145.349 132.032 144.855 135.886 142.975C139.165 141.373 141.898 138.844 143.746 135.704C145.593 132.564 146.475 128.952 146.279 125.317L140.811 91.0427L127.457 91.8691L128.72 119.783L108.057 90.5008C106.177 87.8393 103.315 86.0292 100.099 85.4668C96.8836 84.9044 93.5753 85.6355 90.8989 87.5002Z" fill="#89C605"/>
<path d="M144.398 135.037C141.111 134.271 140.554 133.682 137.273 132.944C136.295 132.713 135.038 132.083 135.473 131.047C135.594 130.784 135.793 130.565 136.043 130.42C136.294 130.274 136.583 130.209 136.872 130.234C138.149 130.343 140.207 131.101 141.444 131.216C141.749 131.216 141.742 130.939 141.607 130.729C139.608 130.127 137.563 129.688 135.493 129.415C135.202 129.376 134.928 129.253 134.706 129.061C134.483 128.869 134.322 128.616 134.242 128.334C134.162 128.052 134.166 127.752 134.255 127.472C134.343 127.193 134.511 126.945 134.739 126.759C135.012 126.62 135.31 126.535 135.615 126.509C136.933 126.698 136.933 126.698 138.333 126.942C142.265 127.62 141.729 126.847 141.729 126.847C141.729 126.549 137.252 126.116 134.936 125.838C134.435 125.843 133.95 125.659 133.578 125.323C133.412 125.075 133.337 124.777 133.365 124.48C133.394 124.182 133.524 123.904 133.734 123.691C133.932 123.461 134.174 123.272 134.446 123.136C134.717 123 135.013 122.919 135.317 122.898C137.877 122.851 146.287 123.786 146.287 123.786C146.287 123.786 147.387 125.276 147.047 128.331C146.701 131.677 144.398 135.037 144.398 135.037Z" fill="#FFBE9D"/>
<path d="M132.506 144.181C132.506 144.181 132.384 144.181 132.153 144.235L131.107 144.343C130.183 144.425 128.825 144.553 127.031 144.574C124.888 144.629 122.749 144.334 120.701 143.7C118.024 142.701 115.627 141.074 113.711 138.958C111.382 136.453 109.194 133.821 107.156 131.074C104.922 128.141 102.585 124.978 100.153 121.625C97.7213 118.272 95.2081 114.73 92.6201 111.038L88.7008 105.396C88.3679 104.915 88.0215 104.434 87.709 103.946L87.2335 103.194C87.0737 102.942 86.9308 102.68 86.8056 102.409C86.2638 101.331 85.8883 100.178 85.6916 98.988C85.4825 97.7998 85.4596 96.5865 85.6237 95.3913C85.6995 94.7999 85.813 94.2139 85.9633 93.6369C86.1303 93.0696 86.3322 92.5131 86.5679 91.9706C86.8042 91.4337 87.0765 90.9132 87.383 90.4127C87.6962 89.9196 88.0435 89.4489 88.4223 89.0038C89.1616 88.1186 90.0239 87.3431 90.9831 86.7009C91.9279 86.0722 92.9509 85.569 94.0262 85.2039C95.0867 84.8643 96.1876 84.6662 97.3002 84.6146C99.4638 84.5165 101.616 84.9835 103.543 85.9693C105.365 86.918 106.929 88.2941 108.1 89.9792C109.223 91.5868 110.308 93.1492 111.354 94.6665L117.196 103.079L125.632 115.272L127.914 118.597C128.166 118.97 128.356 119.275 128.499 119.464L128.689 119.769C128.609 119.678 128.534 119.583 128.465 119.485L127.853 118.638L125.557 115.346L116.999 103.228L111.123 94.8358L107.849 90.1621C106.703 88.5246 105.177 87.1882 103.4 86.2674C100.525 84.8287 97.196 84.5851 94.1416 85.59C93.0974 85.9481 92.1041 86.4399 91.1869 87.0531C90.2507 87.6725 89.4108 88.4256 88.694 89.2883C88.3285 89.7167 87.9927 90.1693 87.6887 90.643C87.39 91.1293 87.1266 91.6364 86.9007 92.1603C86.6666 92.6857 86.4692 93.2266 86.3098 93.7792C86.161 94.3402 86.0498 94.9104 85.9769 95.4861C85.6901 97.8079 86.0916 100.163 87.1317 102.26C87.6818 103.284 88.3038 104.269 88.9928 105.206L92.9122 110.855C95.4934 114.547 98.0066 118.089 100.425 121.442C102.843 124.795 105.18 127.972 107.394 130.925C109.419 133.671 111.591 136.305 113.901 138.816C115.781 140.918 118.135 142.543 120.769 143.558C122.795 144.199 124.912 144.51 127.038 144.479C128.791 144.479 130.149 144.37 131.073 144.31L132.119 144.242C132.384 144.181 132.506 144.181 132.506 144.181Z" fill="#263238"/>
<path d="M130.141 130.011C130.995 126.353 130.381 122.507 128.43 119.295C128.824 119.689 129.148 120.147 129.387 120.65C130.037 121.827 130.476 123.108 130.685 124.436C130.897 125.762 130.879 127.114 130.63 128.433C130.558 128.982 130.393 129.516 130.141 130.011Z" fill="#263238"/>
<path d="M130.472 95.5066C130.155 94.9494 129.991 94.3184 129.997 93.6777C129.886 93.0466 129.942 92.3975 130.16 91.7947C130.292 92.4044 130.356 93.0269 130.35 93.6506C130.461 94.2627 130.502 94.8853 130.472 95.5066Z" fill="#263238"/>
<path d="M134.156 95.1679C133.584 94.0454 133.417 92.7615 133.68 91.5305C133.841 92.1231 133.932 92.7323 133.952 93.3458C134.088 93.9436 134.157 94.5548 134.156 95.1679Z" fill="#263238"/>
<path d="M137.804 94.3483C137.6 93.8791 137.512 93.3683 137.546 92.8581C137.461 92.354 137.494 91.8373 137.641 91.3477C137.841 91.818 137.929 92.3279 137.899 92.8378C137.979 93.3422 137.947 93.858 137.804 94.3483Z" fill="#263238"/>
<path d="M115.313 101.928C115.367 102.002 111.156 105.01 105.905 108.64C100.654 112.271 96.3548 115.15 96.2936 115.068C96.2325 114.987 100.451 111.98 105.701 108.349C110.952 104.718 115.259 101.846 115.313 101.928Z" fill="#FAFAFA"/>
<path d="M112.025 97.0103C111.798 97.2243 111.55 97.415 111.285 97.5792L109.213 99.0288C107.454 100.248 105.042 101.955 102.42 103.885C99.7986 105.816 97.4619 107.631 95.7773 108.945C94.9758 109.575 94.3101 110.097 93.7803 110.503C93.5464 110.71 93.2914 110.891 93.0195 111.045C93.2209 110.796 93.4486 110.568 93.6988 110.368C94.1471 109.968 94.806 109.406 95.6279 108.722C97.2717 107.367 99.588 105.511 102.217 103.574C104.845 101.637 107.284 99.9567 109.077 98.7849C109.974 98.2024 110.701 97.735 111.217 97.4302C111.472 97.2639 111.743 97.1232 112.025 97.0103Z" fill="#FAFAFA"/>
<path d="M275.127 266.829H228.91V273.162H275.127V266.829Z" fill="#263238"/>
<path d="M275.209 273.243H228.836V266.754H275.209V273.243ZM229.019 273.088H275.08V266.91H228.992L229.019 273.088Z" fill="#263238"/>
<path d="M233.195 271.056L239.845 303.785H264.462L270.894 273.162L233.195 271.056Z" fill="#263238"/>
<path d="M233.195 300.69L236.741 305.553H266.662L270.894 300.69H233.195Z" fill="#455A64"/>
<path d="M250.288 272.017C250.2 272.017 250.084 256.851 250.03 238.15C249.976 219.448 250.03 204.282 250.098 204.282C250.166 204.282 250.308 219.441 250.356 238.15C250.404 256.858 250.383 272.011 250.288 272.017Z" fill="#263238"/>
<path d="M260.584 234.072C260.554 234.193 260.513 234.311 260.462 234.424L260.047 235.407C259.952 235.623 259.85 235.854 259.742 236.084L259.436 236.944C259.327 237.256 259.205 237.588 259.083 237.933C258.961 238.279 258.859 238.665 258.736 239.058C258.189 240.91 257.758 242.794 257.446 244.7C257.097 247.039 256.871 249.395 256.767 251.758C256.599 256.051 256.719 260.35 257.127 264.628C257.276 266.274 257.425 267.601 257.541 268.522C257.588 268.949 257.622 269.301 257.656 269.579C257.673 269.703 257.673 269.828 257.656 269.952C257.621 269.834 257.594 269.714 257.575 269.593C257.527 269.315 257.473 268.963 257.398 268.536C257.249 267.621 257.065 266.294 256.882 264.648C256.402 260.358 256.247 256.037 256.42 251.724C256.539 249.348 256.788 246.981 257.167 244.632C257.491 242.716 257.945 240.824 258.526 238.97C258.655 238.577 258.757 238.197 258.893 237.845C259.029 237.493 259.151 237.168 259.273 236.863L259.606 236.003C259.721 235.745 259.837 235.515 259.939 235.325L260.407 234.37C260.453 234.264 260.513 234.164 260.584 234.072Z" fill="#263238"/>
<path d="M259.401 221.805C259.363 221.976 259.313 222.143 259.251 222.307L258.769 223.716C258.667 224.027 258.545 224.393 258.416 224.732C258.287 225.07 258.178 225.517 258.049 225.958C257.777 226.838 257.465 227.834 257.186 228.951L256.718 230.706C256.582 231.322 256.439 231.959 256.29 232.623C255.964 233.944 255.733 235.38 255.434 236.876C254.925 239.884 254.476 243.216 254.164 246.725C253.851 250.234 253.749 253.6 253.702 256.655C253.654 259.71 253.702 262.46 253.858 264.783C253.899 265.942 253.974 266.985 254.035 267.899C254.096 268.814 254.143 269.606 254.204 270.25C254.266 270.893 254.286 271.36 254.313 271.733C254.331 271.906 254.331 272.081 254.313 272.254C254.269 272.086 254.242 271.914 254.232 271.74C254.184 271.374 254.13 270.879 254.055 270.263C253.98 269.647 253.899 268.827 253.831 267.913C253.763 266.998 253.661 265.955 253.607 264.797C253.451 262.487 253.389 259.73 253.376 256.669C253.362 253.607 253.525 250.234 253.817 246.712C254.109 243.189 254.585 239.85 255.115 236.836C255.42 235.332 255.665 233.896 255.998 232.575C256.154 231.898 256.31 231.275 256.453 230.658L256.942 228.904C257.234 227.786 257.56 226.791 257.852 225.917C257.995 225.483 258.124 225.077 258.246 224.698L258.633 223.688L259.17 222.3C259.233 222.129 259.31 221.963 259.401 221.805Z" fill="#263238"/>
<path d="M247.368 274.7C247.36 274.639 247.36 274.578 247.368 274.517C247.368 274.381 247.368 274.212 247.32 273.995C247.32 273.514 247.246 272.844 247.184 271.963C247.076 270.195 246.919 267.676 246.722 264.58C246.322 258.342 245.744 249.726 244.685 240.256C244.148 235.515 243.523 231.024 242.878 226.946C242.531 224.914 242.199 222.97 241.866 221.169C241.533 219.367 241.186 217.687 240.867 216.163C240.548 214.639 240.222 213.257 239.95 212.045C239.679 210.832 239.42 209.796 239.21 208.949L238.728 206.999C238.68 206.789 238.639 206.619 238.612 206.49C238.597 206.43 238.585 206.369 238.578 206.308C238.606 206.362 238.629 206.419 238.646 206.477C238.68 206.612 238.728 206.775 238.789 206.978L239.332 208.922C239.57 209.762 239.842 210.798 240.127 212.004C240.412 213.21 240.772 214.578 241.091 216.109C241.411 217.64 241.771 219.313 242.131 221.121C242.491 222.93 242.81 224.86 243.177 226.899C243.856 230.963 244.474 235.481 245.011 240.223C246.064 249.705 246.607 258.321 246.947 264.567C247.116 267.682 247.239 270.209 247.307 271.956C247.341 272.81 247.368 273.48 247.381 273.989V274.51C247.384 274.574 247.38 274.637 247.368 274.7Z" fill="#263238"/>
<path d="M249.912 211.577C249.708 209.43 247.534 207.805 245.368 207.784C244.284 207.833 243.226 208.126 242.273 208.643C241.319 209.159 240.496 209.885 239.866 210.765C238.62 212.536 237.721 214.526 237.216 216.63C235.756 221.69 234.961 227.007 235.586 232.209C236.211 237.412 238.337 242.58 242.1 246.278C242.712 246.874 243.5 247.477 244.342 247.301C244.793 247.163 245.2 246.911 245.524 246.569C249.211 243.213 252.136 239.109 254.102 234.533C256.068 229.957 257.029 225.015 256.922 220.037C256.867 218.053 256.603 215.973 255.502 214.327C254.402 212.681 251.821 210.941 249.946 211.577" fill="#E8505B"/>
<path d="M233.755 194.373L230.712 199.873C230.637 200.001 230.549 200.144 230.399 200.157C230.25 200.171 230.121 200.022 230.033 199.886L221.977 187.558L223.831 186.509L233.755 194.373Z" fill="#E8505B"/>
<g opacity="0.2">
<path d="M233.755 194.373L230.712 199.873C230.637 200.001 230.549 200.144 230.399 200.157C230.25 200.171 230.121 200.022 230.033 199.886L221.977 187.558L223.831 186.509L233.755 194.373Z" fill="black"/>
</g>
<path d="M250.13 204.289L222.62 188.121C222.315 187.989 222.073 187.747 221.94 187.443C221.832 187.037 222.137 186.651 222.429 186.346C224.319 184.391 226.609 182.865 229.143 181.872C231.677 180.88 234.397 180.444 237.115 180.595C239.831 180.79 242.459 181.64 244.772 183.074C247.084 184.508 249.012 186.482 250.388 188.825C253.044 193.567 253.105 199.798 250.089 204.289" fill="#E8505B"/>
<path d="M226.582 182.959C226.699 182.928 226.82 182.912 226.942 182.912C227.18 182.912 227.526 182.858 227.981 182.865C229.258 182.844 230.534 182.943 231.792 183.163C235.982 183.867 239.883 185.752 243.034 188.595C246.185 191.438 248.455 195.121 249.575 199.209C249.92 200.438 250.147 201.697 250.254 202.968C250.285 203.231 250.3 203.496 250.302 203.761C250.277 203.976 250.203 204.182 250.084 204.364C250.17 203.917 250.186 203.46 250.132 203.009C249.972 201.755 249.711 200.516 249.351 199.304C248.202 195.279 245.944 191.656 242.833 188.848C239.721 186.04 235.882 184.159 231.751 183.42C230.505 183.185 229.242 183.049 227.975 183.014C227.078 182.973 226.582 182.986 226.582 182.959Z" fill="#263238"/>
<path d="M246.375 193.126C245.948 193.388 245.492 193.599 245.016 193.756C244.14 194.102 242.917 194.542 241.545 194.976C240.173 195.409 238.923 195.755 238.013 195.978C237.524 196.125 237.021 196.221 236.512 196.263C236.973 196.042 237.455 195.869 237.952 195.748L241.45 194.664L244.935 193.54C245.4 193.355 245.882 193.217 246.375 193.126Z" fill="#263238"/>
<path d="M242.049 181.537C242.429 183.547 242.482 185.606 242.206 187.633C242.073 186.618 242.021 185.594 242.049 184.571C241.973 183.561 241.973 182.547 242.049 181.537Z" fill="#263238"/>
<path d="M222.375 187.823C223.021 187.543 223.689 187.316 224.372 187.145C225.622 186.759 227.361 186.278 229.297 185.791C231.233 185.303 233.005 184.964 234.296 184.741C234.985 184.59 235.684 184.494 236.388 184.456C235.723 184.679 235.042 184.851 234.35 184.971C233.08 185.249 231.321 185.648 229.392 186.109C227.463 186.57 225.71 187.023 224.454 187.349C223.774 187.559 223.079 187.717 222.375 187.823Z" fill="#263238"/>
<path d="M238.509 206.917C236.145 205.129 233.645 204.777 230.677 204.885C227.711 205.084 224.808 205.833 222.118 207.093C217.479 209.125 213.125 212.099 210.36 216.319C207.595 220.539 206.658 226.134 208.696 230.74C208.858 231.221 209.195 231.625 209.64 231.871C210.153 232.018 210.703 231.977 211.189 231.756C216.46 230.042 221.765 228.308 226.608 225.626C231.451 222.943 235.866 219.211 238.468 214.327C239.139 213.176 239.564 211.898 239.718 210.575C239.79 209.915 239.719 209.246 239.51 208.616C239.302 207.985 238.96 207.406 238.509 206.917Z" fill="#E8505B"/>
<path d="M238.582 206.362C238.464 206.428 238.338 206.481 238.208 206.518L237.101 206.89L236.299 207.161C236.014 207.263 235.702 207.391 235.369 207.52C234.69 207.791 233.929 208.062 233.114 208.455L231.816 209.044C231.375 209.247 230.926 209.498 230.458 209.721C229.5 210.189 228.535 210.785 227.51 211.395C223.088 214.122 219.158 217.57 215.881 221.595C215.147 222.537 214.427 223.411 213.843 224.305C213.544 224.745 213.232 225.152 212.974 225.571C212.715 225.991 212.464 226.391 212.22 226.77C211.724 227.529 211.357 228.261 211.01 228.884C210.834 229.202 210.671 229.493 210.528 229.764L210.161 230.523L209.645 231.566C209.594 231.692 209.525 231.811 209.441 231.918C209.479 231.788 209.527 231.662 209.584 231.539L210.046 230.469L210.386 229.697C210.521 229.419 210.678 229.121 210.847 228.802C211.18 228.166 211.527 227.448 212.023 226.655C212.254 226.262 212.505 225.856 212.756 225.436C213.008 225.016 213.32 224.596 213.619 224.149C214.196 223.255 214.909 222.361 215.657 221.44C217.316 219.421 219.133 217.536 221.091 215.804C223.061 214.096 225.167 212.548 227.387 211.178C228.427 210.575 229.425 209.979 230.369 209.518C230.852 209.281 231.307 209.037 231.728 208.841L233.039 208.272C233.868 207.886 234.649 207.628 235.321 207.378C235.661 207.256 236.001 207.134 236.272 207.039L237.081 206.802L238.208 206.477C238.328 206.425 238.453 206.386 238.582 206.362Z" fill="#263238"/>
<path d="M220.088 216.333C218.208 217.053 216.29 217.668 214.342 218.175C212.423 218.789 210.473 219.302 208.5 219.712C210.38 218.992 212.299 218.375 214.247 217.863C216.164 217.247 218.114 216.736 220.088 216.333Z" fill="#263238"/>
<path d="M219.858 228.979C219.751 228.391 219.708 227.794 219.729 227.197C219.695 226.093 219.695 224.562 219.729 222.876C219.763 221.189 219.864 219.672 219.96 218.568C219.972 217.97 220.047 217.375 220.184 216.793C220.238 217.388 220.238 217.986 220.184 218.581C220.143 219.794 220.102 221.291 220.048 222.889C219.994 224.488 219.973 225.985 219.939 227.197C219.96 227.792 219.933 228.388 219.858 228.979Z" fill="#263238"/>
<path d="M230.718 223.458C230.629 223.458 230.337 220.363 230.072 216.536C229.808 212.708 229.665 209.586 229.76 209.579C229.855 209.572 230.14 212.675 230.405 216.508C230.67 220.342 230.813 223.451 230.718 223.458Z" fill="#263238"/>
<path d="M217.195 209.281C217.806 209.208 218.422 209.19 219.036 209.227C220.17 209.227 221.753 209.268 223.472 209.322C225.19 209.376 226.773 209.45 227.907 209.518C228.523 209.521 229.137 209.58 229.741 209.694C229.131 209.768 228.514 209.786 227.9 209.748C226.766 209.748 225.183 209.708 223.465 209.654C221.746 209.599 220.164 209.525 219.029 209.457C218.414 209.454 217.8 209.395 217.195 209.281Z" fill="#263238"/>
<path d="M243.278 247.023C243.251 246.903 243.237 246.78 243.237 246.657C243.237 246.38 243.237 246.034 243.189 245.601C243.149 244.686 243.142 243.359 243.189 241.719C243.237 240.08 243.332 238.136 243.529 235.976C243.726 233.815 244.052 231.451 244.494 228.985C244.935 226.52 245.499 224.196 246.056 222.103C246.613 220.01 247.224 218.141 247.774 216.59C248.325 215.039 248.8 213.799 249.133 212.959L249.554 211.984C249.597 211.868 249.652 211.757 249.717 211.652C249.698 211.775 249.664 211.896 249.615 212.011C249.52 212.268 249.398 212.593 249.255 213C248.929 213.86 248.488 215.113 247.965 216.664C247.442 218.215 246.885 220.085 246.328 222.178C245.771 224.271 245.248 226.587 244.792 229.046C244.337 231.505 244.018 233.883 243.814 236.003C243.611 238.123 243.468 240.067 243.407 241.733C243.346 243.399 243.339 244.72 243.339 245.601C243.339 246.027 243.339 246.38 243.339 246.657C243.335 246.781 243.314 246.904 243.278 247.023Z" fill="#263238"/>
<path d="M244.73 229.08C244.406 229.519 244.038 229.923 243.63 230.286C242.916 230.963 241.911 231.938 240.756 232.948C239.601 233.957 238.528 234.824 237.734 235.44C237.318 235.799 236.862 236.108 236.375 236.362C236.738 235.96 237.136 235.59 237.564 235.258L240.518 232.697L243.453 230.116C243.845 229.732 244.273 229.385 244.73 229.08Z" fill="#263238"/>
<path d="M253.424 236.07C252.992 235.565 252.601 235.026 252.256 234.458C251.509 233.361 250.571 232.006 249.539 230.502L246.767 226.594C246.355 226.074 245.984 225.521 245.66 224.941C246.137 225.406 246.571 225.911 246.958 226.452C247.718 227.421 248.737 228.782 249.81 230.32C250.884 231.857 251.807 233.286 252.453 234.329C252.832 234.877 253.157 235.46 253.424 236.07Z" fill="#263238"/>
<path d="M248.868 214.097C248.916 214.172 246.029 216.129 242.415 218.432C238.802 220.735 235.833 222.564 235.786 222.496C235.738 222.429 238.625 220.464 242.239 218.168C245.852 215.872 248.821 214.023 248.868 214.097Z" fill="#263238"/>
<path d="M257.019 222.869C254.03 220.265 251.188 217.497 248.508 214.578C251.497 217.182 254.339 219.95 257.019 222.869Z" fill="#263238"/>
<path d="M259.062 222.693L261.542 222.483C263.303 222.339 265.013 221.82 266.555 220.959C267.305 220.519 268.083 220.127 268.885 219.787C271.955 218.561 275.372 218.778 278.673 218.615C284.09 218.346 289.397 216.996 294.282 214.646C294.567 214.515 294.804 214.3 294.961 214.029C295.478 213.101 294.527 212.282 293.712 211.781C289.534 209.213 285.282 206.612 280.541 205.339C275.799 204.066 270.427 204.276 266.385 207.053C261.63 210.311 259.905 217.003 259.103 222.693" fill="#E8505B"/>
<path d="M294.963 213.725C294.815 213.677 294.673 213.611 294.541 213.528L293.366 212.919C292.347 212.383 290.88 211.564 289.026 210.704C286.864 209.65 284.614 208.787 282.301 208.123C279.472 207.324 276.512 207.094 273.593 207.446C270.667 207.769 267.902 208.947 265.646 210.832C263.889 212.463 262.484 214.433 261.516 216.624C260.838 218.095 260.237 219.601 259.716 221.135L259.274 222.381C259.234 222.53 259.174 222.674 259.098 222.808C259.124 222.656 259.162 222.506 259.213 222.361C259.308 222.042 259.437 221.623 259.594 221.094C260.072 219.539 260.643 218.015 261.305 216.529C262.256 214.288 263.667 212.271 265.449 210.609C267.737 208.662 270.557 207.442 273.546 207.107C276.509 206.757 279.512 207.008 282.376 207.845C284.702 208.524 286.961 209.417 289.121 210.514C290.969 211.428 292.415 212.248 293.421 212.817L294.569 213.494C294.706 213.56 294.838 213.637 294.963 213.725Z" fill="#263238"/>
<path d="M289.025 216.949C288.97 217.023 285.73 214.917 281.777 212.275C277.824 209.633 274.665 207.405 274.719 207.33C274.774 207.256 278.014 209.362 281.96 212.004C285.907 214.646 289.072 216.84 289.025 216.949Z" fill="#263238"/>
<path d="M285.561 207.127C284.803 207.391 284.008 207.535 283.204 207.554C282.403 207.664 281.59 207.653 280.793 207.52C281.58 207.375 282.377 207.294 283.177 207.276C283.967 207.17 284.764 207.12 285.561 207.127Z" fill="#263238"/>
<path d="M271.366 205.285C271.098 205.887 270.739 206.445 270.3 206.938C269.921 207.509 269.464 208.024 268.941 208.468C269.204 207.861 269.564 207.301 270.008 206.809C270.381 206.235 270.839 205.722 271.366 205.285Z" fill="#263238"/>
<path d="M274.271 218.825C273.723 218.595 273.2 218.312 272.709 217.978C271.771 217.409 270.508 216.583 269.149 215.601C267.791 214.619 266.609 213.691 265.753 213.013C265.264 212.675 264.809 212.289 264.395 211.862C264.919 212.139 265.417 212.463 265.882 212.83L269.34 215.337C270.698 216.312 271.928 217.165 272.831 217.782C273.338 218.091 273.819 218.44 274.271 218.825Z" fill="#263238"/>
<path d="M262.717 233.205C260.353 232.582 257.527 234.878 257.045 237.269C256.562 239.66 257.452 242.106 258.505 244.307C260.757 249.243 264.101 253.606 268.287 257.068C272.504 260.528 277.77 262.464 283.23 262.562C282.225 257.928 283.495 253.079 282.931 248.385C282.439 244.239 280.552 240.381 277.577 237.443C274.603 234.505 270.717 232.66 266.554 232.209C265.046 232.047 263.301 231.817 262.696 233.205" fill="#E8505B"/>
<path d="M283.253 262.555C283.135 262.513 283.022 262.461 282.913 262.399C282.601 262.227 282.306 262.028 282.03 261.803C281.037 260.945 280.24 259.885 279.693 258.694C279.313 257.962 278.892 257.17 278.484 256.289L277.207 253.485C276.751 252.453 276.229 251.45 275.645 250.484C275.004 249.457 274.284 248.481 273.492 247.565C271.875 245.668 270.136 244.029 268.628 242.458C267.265 241.09 266.024 239.605 264.92 238.021C264.177 236.945 263.568 235.782 263.106 234.56C262.956 234.12 262.848 233.781 262.793 233.544C262.752 233.428 262.727 233.307 262.719 233.185C262.719 233.185 262.882 233.666 263.228 234.54C263.73 235.733 264.361 236.869 265.11 237.926C266.234 239.477 267.484 240.934 268.846 242.282C270.36 243.833 272.106 245.472 273.743 247.389C274.545 248.318 275.274 249.308 275.924 250.349C276.506 251.33 277.027 252.346 277.486 253.39C277.921 254.386 278.342 255.327 278.729 256.208C279.116 257.089 279.537 257.881 279.897 258.619C280.416 259.799 281.169 260.861 282.112 261.742C282.804 262.331 283.266 262.521 283.253 262.555Z" fill="#263238"/>
<path d="M271.02 258.707C271.026 258.17 271.099 257.635 271.237 257.116C271.42 256.147 271.726 254.813 272.134 253.356C272.541 251.9 272.983 250.613 273.336 249.685C273.493 249.172 273.709 248.679 273.981 248.215C273.884 248.742 273.741 249.258 273.553 249.76C273.261 250.701 272.874 252.002 272.453 253.451C272.032 254.901 271.706 256.215 271.461 257.17C271.357 257.694 271.209 258.208 271.02 258.707Z" fill="#263238"/>
<path d="M282.802 247.335C282.234 247.26 281.675 247.133 281.131 246.956C280.112 246.685 278.706 246.326 277.137 245.973C275.567 245.621 274.148 245.343 273.108 245.154C272.541 245.08 271.982 244.955 271.438 244.781C272.012 244.768 272.585 244.816 273.149 244.923C274.195 245.059 275.635 245.296 277.225 245.648C278.814 246 280.207 246.407 281.212 246.732C281.762 246.875 282.295 247.077 282.802 247.335Z" fill="#263238"/>
<path d="M262.234 250.64C262.261 250.019 262.348 249.402 262.492 248.798C262.703 247.673 263.029 246.129 263.471 244.436C263.912 242.742 264.388 241.232 264.754 240.148C264.926 239.552 265.153 238.974 265.434 238.421C265.333 239.031 265.181 239.631 264.979 240.216C264.666 241.313 264.231 242.83 263.79 244.517C263.348 246.204 262.988 247.734 262.717 248.845C262.606 249.456 262.445 250.056 262.234 250.64Z" fill="#263238"/>
<path d="M277.376 237.425C277.376 237.513 274.408 237.276 270.78 236.89C267.153 236.504 264.205 236.125 264.219 236.037C266.425 236.103 268.626 236.279 270.814 236.565C274.448 236.951 277.383 237.337 277.376 237.425Z" fill="#263238"/>
<path d="M275.209 273.169C275.209 273.257 264.83 273.331 252.026 273.331C239.222 273.331 228.836 273.257 228.836 273.169C228.836 273.081 239.215 273 252.026 273C264.837 273 275.209 273.047 275.209 273.169Z" fill="#455A64"/>
<path d="M267.988 286.458C267.988 286.553 260.992 286.628 252.365 286.628C243.739 286.628 236.742 286.553 236.742 286.458C236.742 286.364 243.739 286.296 252.365 286.296C260.992 286.296 267.988 286.37 267.988 286.458Z" fill="#455A64"/>
<path d="M267.718 288.369C267.718 288.457 260.844 288.531 252.367 288.531C243.89 288.531 237.016 288.457 237.016 288.369C237.016 288.281 243.89 288.199 252.367 288.199C260.844 288.199 267.718 288.274 267.718 288.369Z" fill="#455A64"/>
<path d="M268.261 284.894C268.261 284.982 261.027 285.057 252.101 285.057C243.176 285.057 235.941 284.982 235.941 284.894C235.941 284.806 243.176 284.725 252.101 284.725C261.027 284.725 268.261 284.799 268.261 284.894Z" fill="#455A64"/>
<path d="M175.416 13.2014C169.357 11.8467 161.579 16.0463 159.487 21.6954C157.395 27.3445 159.664 34.3348 164.242 38.2837C160.682 42.8491 160.533 49.6361 163.562 54.5808C166.592 59.5254 172.393 62.4922 178.201 62.4584C181.107 62.3796 183.963 61.6883 186.582 60.4298C189.201 59.1713 191.523 57.3741 193.396 55.1565C195.867 56.3709 198.629 56.8758 201.372 56.6148C204.115 56.3537 206.731 55.3371 208.928 53.6784C211.125 52.0198 212.816 49.7845 213.812 47.2226C214.808 44.6606 215.07 41.8729 214.568 39.171C221.415 36.6716 225.192 27.9135 222.285 21.1941C219.377 14.4748 210.384 11.2574 203.856 14.5493C203.999 7.25426 197.621 0.446888 190.312 0.0946655C183.003 -0.257557 175.993 5.92666 175.416 13.2014Z" fill="#FAFAFA"/>
<g clip-path="url(#clip1_204_15618)">
<path d="M189.502 43.9985C187.226 43.9991 185.002 43.3251 183.11 42.0619C181.218 40.7986 179.744 39.0028 178.873 36.9016C178.002 34.8004 177.773 32.4881 178.217 30.2572C178.66 28.0262 179.755 25.9769 181.364 24.3682C182.972 22.7596 185.022 21.664 187.253 21.2199C189.484 20.7758 191.797 21.0032 193.899 21.8733C196.001 22.7434 197.798 24.2172 199.062 26.1082C200.326 27.9993 201.001 30.2226 201.002 32.4972C201.003 34.0075 200.706 35.5033 200.128 36.8989C199.551 38.2945 198.704 39.5627 197.636 40.6308C196.568 41.699 195.3 42.5462 193.904 43.1241C192.508 43.7019 191.012 43.9991 189.502 43.9985ZM182.69 36.8456L193.847 25.693C191.426 23.9997 187.158 23.6727 184.042 26.5233C180.823 29.4689 180.77 34.0005 182.69 36.8456ZM185.159 39.3C187.827 41.1466 192.453 41.2809 195.501 37.9229C198.418 34.7087 197.916 30.3942 196.306 28.1542L185.159 39.3Z" fill="#D74B53"/>
</g>
<path d="M175.415 13.2015H175.313H175.353H175.449H175.557C175.557 13.2557 175.482 13.2015 175.442 13.2489C175.538 11.7867 175.88 10.3511 176.454 9.00194C176.992 7.78535 177.691 6.64626 178.532 5.61519C179.608 4.28078 180.901 3.13595 182.357 2.22843C184.104 1.1177 186.075 0.405327 188.13 0.142192L188.966 0.0473633H189.828C190.417 0.0505157 191.005 0.0935124 191.588 0.176059C192.804 0.353524 193.99 0.695342 195.113 1.19209C195.411 1.31005 195.699 1.45044 195.976 1.61204C196.254 1.76783 196.546 1.91685 196.825 2.08619C197.385 2.44172 197.922 2.83078 198.435 3.25123C198.961 3.67592 199.464 4.12812 199.943 4.60593C200.411 5.12378 200.851 5.66645 201.26 6.23158C203.03 8.64308 203.982 11.5546 203.977 14.5427L203.774 14.414C206.801 12.992 210.247 12.7339 213.453 13.6892C216.942 14.6167 219.938 16.8515 221.815 19.9276C222.733 21.5955 223.277 23.4422 223.409 25.3402C223.542 27.2383 223.26 29.1423 222.582 30.921C221.921 32.7812 220.896 34.4919 219.567 35.9537C218.207 37.4596 216.507 38.6206 214.608 39.3405L214.723 39.1441C215.224 42.022 214.882 44.9829 213.738 47.6719C212.584 50.4514 210.608 52.8142 208.073 54.4454C205.879 55.81 203.377 56.6027 200.795 56.7507C198.213 56.8986 195.636 56.3971 193.299 55.2921L193.51 55.2514C190.322 58.9784 185.936 61.4872 181.1 62.3501C176.526 63.1192 171.831 62.0818 168.011 59.4578C166.218 58.2333 164.693 56.6596 163.527 54.8315C162.432 53.0678 161.72 51.095 161.435 49.0401C161.15 47.0871 161.247 45.0974 161.721 43.1811C162.177 41.3694 162.998 39.6688 164.132 38.1822V38.3651C162.045 36.5042 160.461 34.1491 159.527 31.5171C159.09 30.3152 158.804 29.0638 158.678 27.7916C158.538 26.5954 158.558 25.3858 158.739 24.1949C159.025 22.0345 159.938 20.0048 161.367 18.3562C162.562 16.9783 163.989 15.8204 165.586 14.9355C166.856 14.2227 168.215 13.6784 169.627 13.3167C170.663 13.0565 171.725 12.9155 172.793 12.8967C173.45 12.8863 174.108 12.9385 174.756 13.0525C175.19 13.127 175.435 13.1812 175.435 13.1812L174.756 13.0931C174.108 12.9969 173.454 12.9584 172.799 12.978C171.74 13.0106 170.687 13.1629 169.661 13.4318C168.265 13.8128 166.925 14.3729 165.674 15.0981C164.104 15.9779 162.699 17.124 161.524 18.4848C160.128 20.1124 159.24 22.1113 158.97 24.2356C158.795 25.4066 158.776 26.5955 158.915 27.7713C159.057 29.0304 159.351 30.2677 159.792 31.4561C160.717 34.0442 162.282 36.3577 164.343 38.1822L164.438 38.2635L164.363 38.3651C163.255 39.8247 162.456 41.4929 162.013 43.2691C161.554 45.151 161.462 47.1033 161.741 49.0198C162.019 51.0301 162.713 52.9607 163.779 54.6892C164.925 56.4778 166.423 58.0168 168.18 59.214C171.935 61.7819 176.543 62.7947 181.032 62.0385C185.797 61.1879 190.118 58.7149 193.259 55.0415L193.347 54.9399L193.469 55.0008C195.752 56.0764 198.269 56.5637 200.79 56.4181C203.31 56.2725 205.754 55.4988 207.897 54.1677C210.375 52.5649 212.303 50.2469 213.426 47.5229C214.55 44.8999 214.885 42.0077 214.391 39.1982V39.056L214.533 39.0086C216.34 38.2792 217.969 37.1693 219.306 35.7548C220.644 34.3403 221.659 32.6545 222.284 30.8126C222.949 29.0809 223.229 27.2254 223.104 25.375C222.978 23.5246 222.45 21.7235 221.557 20.0969C219.726 17.096 216.807 14.913 213.406 14.0008C210.273 13.0609 206.903 13.3094 203.944 14.6985L203.733 14.8001V14.5698C203.734 11.6491 202.807 8.80328 201.084 6.44156C200.681 5.88326 200.248 5.34735 199.786 4.83623C199.322 4.35674 198.83 3.90442 198.312 3.48153C197.809 3.06568 197.281 2.68112 196.73 2.33003C196.451 2.1607 196.173 2.01168 195.894 1.85589C195.622 1.69574 195.338 1.55539 195.045 1.43593C193.941 0.931824 192.773 0.578672 191.574 0.386039C191.002 0.306882 190.426 0.263897 189.849 0.257342H189L188.171 0.345397C186.144 0.593744 184.198 1.2878 182.472 2.37745C179.881 3.94883 177.818 6.25534 176.549 9.00194C175.951 10.3332 175.568 11.7507 175.415 13.2015C175.462 13.2015 175.523 13.1541 175.544 13.2015H175.428H175.34H175.292H175.415Z" fill="#263238"/>
<path d="M150.446 47.0826C149.28 46.9538 148.102 47.1723 147.061 47.7106C146.019 48.2488 145.161 49.0825 144.594 50.1067C144.028 51.1308 143.778 52.2994 143.877 53.4649C143.975 54.6305 144.418 55.7407 145.149 56.6556C145.88 57.5704 146.866 58.2488 147.983 58.6052C149.101 58.9616 150.299 58.98 151.426 58.6581C152.554 58.3361 153.561 57.6882 154.32 56.7962C155.078 55.9043 155.555 54.8081 155.69 53.6462C155.81 52.0937 155.336 50.5534 154.363 49.3356C153.39 48.1177 151.99 47.3127 150.446 47.0826Z" fill="#FAFAFA"/>
<path d="M150.48 47.0895C150.97 47.1063 151.453 47.2095 151.906 47.3943C152.966 47.8231 153.89 48.5276 154.583 49.4344C155.276 50.3411 155.712 51.4167 155.846 52.5489C155.944 53.6245 155.724 54.705 155.214 55.658C154.943 56.1713 154.6 56.6434 154.196 57.0601C153.78 57.5016 153.301 57.8804 152.776 58.1845C151.683 58.8746 150.386 59.1709 149.101 59.0243C147.816 58.8777 146.62 58.2969 145.712 57.3784C145.265 56.9673 144.885 56.4898 144.584 55.9628C144.278 55.4694 144.049 54.9327 143.905 54.371C143.619 53.3289 143.65 52.2257 143.993 51.201C144.377 50.127 145.044 49.1759 145.923 48.4476C146.803 47.7194 147.863 47.2409 148.992 47.0624C149.473 46.9746 149.966 46.9746 150.446 47.0624C150.446 47.1098 149.923 47.0218 149.013 47.1775C147.727 47.4244 146.552 48.0663 145.65 49.0132C145.034 49.654 144.57 50.4249 144.292 51.2687C143.981 52.24 143.962 53.2808 144.238 54.2626C144.543 55.3509 145.143 56.3349 145.97 57.1075C146.827 57.9688 147.952 58.5133 149.161 58.6512C150.37 58.7891 151.59 58.5122 152.62 57.8661C153.123 57.5814 153.581 57.2229 153.978 56.8027C154.364 56.4117 154.692 55.9668 154.95 55.4819C155.445 54.5901 155.665 53.5719 155.581 52.5557C155.491 51.6671 155.206 50.8092 154.746 50.0427C154.079 48.9211 153.08 48.0335 151.886 47.5027C151.426 47.3364 150.957 47.1984 150.48 47.0895Z" fill="#263238"/>
<path d="M138.882 59.9657C138.379 59.9102 137.871 60.0044 137.422 60.2366C136.972 60.4687 136.602 60.8284 136.358 61.2701C136.113 61.7119 136.006 62.2159 136.048 62.7187C136.091 63.2214 136.282 63.7003 136.597 64.095C136.912 64.4896 137.338 64.7822 137.82 64.936C138.301 65.0897 138.818 65.0977 139.305 64.9588C139.791 64.82 140.225 64.5405 140.553 64.1558C140.88 63.7711 141.086 63.2982 141.144 62.797C141.196 62.1273 140.991 61.4628 140.572 60.9374C140.152 60.412 139.548 60.0648 138.882 59.9657Z" fill="#FAFAFA"/>
<path d="M138.897 59.9726C139.112 59.942 139.332 59.975 139.529 60.0674C140.001 60.2463 140.415 60.5503 140.726 60.9466C141.037 61.343 141.234 61.8165 141.295 62.3162C141.342 62.7985 141.245 63.2838 141.016 63.7115C140.763 64.1998 140.367 64.5997 139.881 64.8583C139.395 65.1169 138.841 65.222 138.294 65.1595C137.746 65.097 137.231 64.87 136.816 64.5086C136.4 64.1472 136.105 63.6684 135.969 63.1358C135.845 62.6673 135.861 62.1725 136.017 61.7134C136.164 61.324 136.396 60.9722 136.696 60.6838C137.119 60.2647 137.668 59.9958 138.259 59.9184C138.472 59.8783 138.692 59.8947 138.897 59.9658C138.897 59.9997 138.666 59.9658 138.286 60.0539C137.747 60.1767 137.257 60.4574 136.88 60.8599C136.598 61.1412 136.396 61.4918 136.295 61.8762C136.194 62.2605 136.196 62.6647 136.302 63.0477C136.412 63.5247 136.667 63.956 137.032 64.2823C137.398 64.6085 137.856 64.8137 138.343 64.8694C138.831 64.9252 139.323 64.8287 139.753 64.5934C140.184 64.3582 140.53 63.9956 140.745 63.5558C140.935 63.2063 141.029 62.8129 141.017 62.4154C141.005 62.018 140.888 61.6309 140.677 61.2934C140.406 60.8123 139.99 60.4284 139.488 60.1961C139.121 60.0268 138.89 59.9997 138.897 59.9726Z" fill="#263238"/>
</g>
<defs>
<clipPath id="clip0_204_15618">
<rect width="297" height="306" fill="white"/>
</clipPath>
<clipPath id="clip1_204_15618">
<rect width="23" height="23" fill="white" transform="translate(178 21)"/>
</clipPath>
</defs>
</svg>
