<?xml version="1.0" encoding="utf-8"?>
<!-- Generator: Adobe Illustrator 24.1.2, SVG Export Plug-In . SVG Version: 6.00 Build 0)  -->
<svg version="1.1" id="Layer_1" xmlns="http://www.w3.org/2000/svg" xmlns:xlink="http://www.w3.org/1999/xlink" x="0px" y="0px"
	 viewBox="0 0 20 20" style="enable-background:new 0 0 20 20;" xml:space="preserve">
<style type="text/css">
	.st0{fill:#232C65;}
	.st1{fill:#FFFFFF;}
	.st2{fill:#C8202F;}
	.st3{fill:none;}
</style>
<path class="st0" d="M-3.3,0.1h26.7v20H-3.3V0.1z"/>
<path class="st1" d="M-0.2,0.1L10,7.6l10.1-7.5h3.3v2.6l-10,7.5l10,7.4v2.5H20l-10-7.5L0,20.1h-3.4v-2.5l10-7.4l-10-7.4V0.1H-0.2"/>
<path class="st2" d="M14.3,11.8l9,6.6v1.7L12,11.8H14.3z M6.7,12.6l0.3,1.5l-8,6h-2.3L6.7,12.6z M23.3,0.1v0.1L13,8L13,6.2l8.2-6.1
	H23.3z M-3.3,0.1l10,7.3H4.1l-7.5-5.6V0.1z"/>
<path class="st1" d="M6.7,0.1v20h6.7v-20H6.7z M-3.3,6.8v6.7h26.7V6.8H-3.3z"/>
<path class="st2" d="M-3.3,8.1v4h26.7v-4H-3.3z M8,0.1v20h4v-20H8z"/>
<circle class="st3" cx="10" cy="10" r="10"/>
</svg>
