<svg width="27" height="9" viewBox="0 0 27 9" fill="none" xmlns="http://www.w3.org/2000/svg">
<g clip-path="url(#clip0_674_19845)">
<path d="M2.12192 0L0 9.00008H2.12192L4.24384 0H2.12192Z" fill="#263238"/>
<path d="M6.30649 0L4.18457 9.00008H6.30649L8.42841 0H6.30649Z" fill="#263238"/>
<path d="M10.4911 0L8.36914 9.00008H10.4911L12.6129 0H10.4911Z" fill="#263238"/>
<path d="M24.8783 0L22.7563 9.00008H24.8783L27.0002 0H24.8783Z" fill="#263238"/>
<path d="M14.3477 2.10457L17.1769 0H22.7563L22.2505 2.10457H14.3477Z" fill="#263238"/>
<path d="M14.1265 2.94096H17.1138L21.2865 6.05002H18.3308L14.1265 2.94096Z" fill="#263238"/>
<path d="M13.178 6.9046L12.7197 9.00008H18.2833L21.1125 6.9046H13.178Z" fill="#263238"/>
</g>
<defs>
<clipPath id="clip0_674_19845">
<rect width="27" height="9" fill="white"/>
</clipPath>
</defs>
</svg>
