<svg width="21" height="21" viewBox="0 0 21 21" fill="none" xmlns="http://www.w3.org/2000/svg">
<g clip-path="url(#clip0_674_19865)">
<path d="M16.6271 20.6607L16.5965 20.563C16.5885 20.5881 16.579 20.6127 16.568 20.6367C16.5617 20.6477 16.5459 20.6628 16.5374 20.6613C16.5296 20.6594 16.5222 20.6561 16.5157 20.6514C16.5092 20.6468 16.5037 20.6409 16.4995 20.6341C16.4857 20.6039 16.4739 20.5728 16.4641 20.541C16.4541 20.5933 16.4473 20.6268 16.4404 20.6602H16.423C16.4151 20.6472 16.4014 20.6346 16.4003 20.6215C16.3972 20.5813 16.4003 20.5405 16.4003 20.5003C16.4003 20.4726 16.4067 20.448 16.4415 20.4443C16.4763 20.4407 16.4995 20.4443 16.5111 20.4809C16.5158 20.4966 16.5232 20.5112 16.5348 20.5389C16.5506 20.5081 16.5559 20.4835 16.5717 20.471C16.5907 20.4559 16.6143 20.4478 16.6387 20.448C16.6503 20.448 16.6703 20.4741 16.6708 20.4893C16.6708 20.5463 16.6888 20.6074 16.6545 20.6592L16.6271 20.6607Z" fill="#263238"/>
<path d="M16.1704 20.4637C16.2388 20.4365 16.3146 20.4343 16.3845 20.4574C16.3567 20.467 16.3335 20.4865 16.3193 20.5121C16.3052 20.5377 16.3012 20.5675 16.308 20.5959C16.3099 20.6102 16.3084 20.6246 16.3038 20.6383C16.2985 20.6492 16.2854 20.6628 16.2753 20.6634C16.2689 20.6622 16.2629 20.6594 16.2577 20.6554C16.2526 20.6514 16.2485 20.6463 16.2458 20.6404C16.2407 20.6234 16.2388 20.6057 16.24 20.5881C16.2379 20.5395 16.2527 20.4825 16.1704 20.4637Z" fill="#263238"/>
<path d="M20.4421 0.453738C20.4152 0.506012 20.3894 0.558286 20.3562 0.617355L20.5829 0.675903V0.689494C20.5175 0.689494 20.4516 0.685834 20.3862 0.689494C20.3344 0.692236 20.2833 0.702268 20.2344 0.719289C20.1147 0.76529 19.9981 0.819656 19.8795 0.867748C19.8598 0.872596 19.8424 0.884138 19.8303 0.90037C19.8183 0.916603 19.8124 0.936501 19.8136 0.956613C19.8137 0.993261 19.8033 1.02918 19.7835 1.06012C19.7636 1.09106 19.7353 1.11573 19.7018 1.13121C19.5902 1.19488 19.4948 1.28304 19.4229 1.38892C19.37 1.45477 19.3022 1.5074 19.2251 1.5426C19.1799 1.56794 19.1371 1.59715 19.097 1.6299C19.0471 1.67479 18.988 1.7083 18.9237 1.72808C18.8594 1.74786 18.7914 1.75342 18.7247 1.74438C18.6757 1.73706 18.6261 1.73184 18.5771 1.72452C18.506 1.71669 18.4343 1.73057 18.3714 1.76429C18.3086 1.79802 18.2576 1.84998 18.2254 1.91323C18.2087 1.95056 18.2017 1.99141 18.2049 2.03211C18.2081 2.07281 18.2215 2.11207 18.2438 2.14637C18.2771 2.20387 18.3177 2.25719 18.3551 2.31208C18.4365 2.42211 18.4933 2.54811 18.5217 2.68165C18.5437 2.78552 18.5409 2.89305 18.5134 2.99562C18.4859 3.0982 18.4346 3.19297 18.3635 3.27235C18.1458 3.52222 17.7039 3.52379 17.4671 3.2781C17.3875 3.19446 17.3147 3.1035 17.2372 3.01673C17.1069 2.86429 16.959 2.72761 16.7964 2.60951C16.6829 2.52758 16.5537 2.46942 16.4168 2.43858C16.3253 2.41777 16.2303 2.4174 16.1387 2.43748C16.047 2.45757 15.9611 2.49761 15.887 2.5547C15.8129 2.6118 15.7525 2.68452 15.7103 2.76759C15.668 2.85066 15.6449 2.94202 15.6427 3.03502C15.634 3.21595 15.6614 3.39681 15.7232 3.56724C15.7851 3.73766 15.8803 3.89432 16.0034 4.02823C16.7004 4.8106 17.3972 5.59348 18.0936 6.3769C18.2707 6.57658 18.44 6.78306 18.6045 6.99321C18.887 7.34191 19.0896 7.74734 19.1982 8.18139C19.3475 8.81129 19.2199 9.38055 18.8017 9.88082C18.5642 10.1684 18.2693 10.404 17.9354 10.5729C17.4033 10.8395 16.8555 10.8568 16.3008 10.6602C16.161 10.6111 16.0266 10.5473 15.8789 10.4872C15.8637 10.4944 15.8489 10.5024 15.8346 10.5112C15.455 10.7695 15.0305 10.9153 14.5818 10.999C14.3697 11.0393 14.1538 11.0569 13.938 11.0512C13.4634 11.0376 13.0205 10.93 12.6197 10.6681C12.6059 10.6598 12.5917 10.6523 12.577 10.6456C12.5658 10.6586 12.5556 10.6724 12.5464 10.6869C12.4256 10.8995 12.2571 11.0817 12.0539 11.2196C11.7643 11.4161 11.4411 11.5588 11.1001 11.6409C10.8406 11.7083 10.5791 11.7674 10.3197 11.8343C10.133 11.8817 9.95228 11.9496 9.78077 12.0366C9.69746 12.0789 9.69535 12.081 9.72804 12.1699C9.81965 12.4332 9.98014 12.6677 10.1931 12.8495C10.3243 12.9586 10.4771 13.0392 10.6417 13.0861C10.8063 13.133 10.979 13.1452 11.1486 13.1218C11.4801 13.0898 11.7915 12.9499 12.0344 12.724C12.1104 12.6534 12.1742 12.5703 12.2501 12.4851C12.2551 12.5033 12.258 12.5221 12.2585 12.541C12.2494 12.651 12.2171 12.7578 12.1637 12.8546C12.1103 12.9514 12.0369 13.036 11.9485 13.103C11.7404 13.2657 11.4937 13.3728 11.2319 13.414C10.81 13.4924 10.4156 13.3957 10.0518 13.1741C9.77338 13.0031 9.53873 12.7705 9.36632 12.4945L9.30093 12.3926C9.2714 12.4245 9.2482 12.448 9.225 12.4741C9.03489 12.7091 8.91246 12.9907 8.87066 13.2891C8.83684 13.4655 8.83594 13.6466 8.86802 13.8233C8.91411 14.0531 9.04831 14.2563 9.2424 14.39C9.44021 14.5252 9.66687 14.6132 9.90468 14.6472C10.4515 14.7412 10.9899 14.6937 11.524 14.5541C12.0255 14.4229 12.5259 14.2927 13.0321 14.1735C13.4184 14.0843 13.8109 14.0238 14.2063 13.9927C14.6044 13.954 15.0058 13.9645 15.4012 14.024C15.5925 14.0498 15.7791 14.1026 15.9554 14.1809C16.4943 14.4375 16.7727 14.8672 16.8048 15.4558C16.8191 15.6998 16.7701 15.9433 16.6625 16.1631C16.5843 16.3339 16.4689 16.4853 16.3245 16.6065C16.1802 16.7277 16.0105 16.8157 15.8278 16.8641C15.6037 16.9268 15.3738 16.9686 15.147 17.0209C15.1043 17.0308 15.0616 17.0403 15.0205 17.0538C14.9878 17.0643 14.9598 17.0894 14.9678 17.1239C14.9723 17.1369 14.9797 17.1488 14.9895 17.1587C14.9992 17.1685 15.0111 17.1761 15.0242 17.1809C15.0689 17.1926 15.1154 17.1958 15.1613 17.1903C15.3532 17.1642 15.5486 17.1938 15.7239 17.2755C16.0023 17.4004 16.121 17.6414 16.0893 17.9315C16.0803 18.009 16.0646 18.0856 16.0424 18.1605C16.0256 18.2162 16.0284 18.2759 16.0503 18.3298C16.0724 18.3863 16.0935 18.4433 16.1162 18.4997C16.1689 18.6257 16.1383 18.7433 16.0809 18.8589C16.0586 18.8993 16.0409 18.9421 16.0281 18.9864C16.0072 19.089 15.9592 19.1843 15.8889 19.2624C15.8195 19.3369 15.7686 19.4264 15.7402 19.5238C15.7327 19.5624 15.7157 19.5986 15.6909 19.6292C15.6661 19.6599 15.6342 19.6842 15.5979 19.6999C15.5845 19.7057 15.5731 19.7152 15.565 19.7273C15.557 19.7393 15.5526 19.7534 15.5525 19.7679C15.5304 19.9279 15.5035 20.0878 15.485 20.2488C15.4814 20.3031 15.4862 20.3576 15.4993 20.4104C15.5109 20.4694 15.5309 20.5264 15.542 20.5881C15.4845 20.5358 15.4634 20.4543 15.4049 20.3879L15.2435 20.5447C15.257 20.4942 15.2808 20.447 15.3137 20.4062C15.3547 20.3499 15.3808 20.2843 15.3896 20.2154C15.4075 20.0659 15.4297 19.9174 15.4523 19.7684C15.458 19.7523 15.458 19.7348 15.4522 19.7187C15.4465 19.7027 15.4353 19.689 15.4207 19.6801C15.3888 19.659 15.3631 19.6299 15.3463 19.5957C15.3295 19.5615 15.3222 19.5235 15.3253 19.4856C15.3266 19.3695 15.3002 19.2547 15.2483 19.1505C15.2125 19.0682 15.1966 18.9787 15.2019 18.8892C15.2011 18.8318 15.1963 18.7745 15.1876 18.7177C15.1757 18.6565 15.1766 18.5935 15.1902 18.5326C15.2038 18.4718 15.2298 18.4143 15.2667 18.3638C15.3058 18.3116 15.34 18.2593 15.3822 18.2112C15.4629 18.1213 15.4386 17.9033 15.3616 17.8212C15.2847 17.7392 15.1908 17.7303 15.088 17.7371C14.9852 17.7439 14.8844 17.7538 14.7827 17.7512C14.6685 17.7502 14.5562 17.7221 14.4553 17.6692C14.3543 17.6162 14.2677 17.54 14.2027 17.4469C13.9242 17.0711 14.199 16.5776 14.5755 16.5029C14.7669 16.4652 14.9588 16.4266 15.1481 16.38C15.3245 16.34 15.4923 16.2692 15.6437 16.1709C15.7227 16.1231 15.7913 16.0602 15.8456 15.9859C15.8999 15.9116 15.9388 15.8274 15.9601 15.7381C15.9924 15.6213 15.9878 15.4974 15.947 15.3832C15.9062 15.269 15.8311 15.1699 15.7318 15.0993C15.5716 14.9821 15.3857 14.9042 15.1892 14.8719C14.9398 14.8197 14.6978 14.862 14.451 14.9132C13.5441 15.1039 12.6366 15.2908 11.7286 15.4741C11.3948 15.541 11.0584 15.6017 10.7204 15.6456C10.2237 15.7104 9.73068 15.6905 9.254 15.5159C8.9985 15.4269 8.76573 15.2835 8.57199 15.0958C8.37826 14.9082 8.22824 14.6808 8.13245 14.4297C7.97041 14.0369 7.90603 13.6113 7.94473 13.1887C7.98439 12.7464 8.17634 12.3311 8.48837 12.0125C8.63252 11.8607 8.79491 11.7269 8.9719 11.6142C8.99443 11.6025 9.01249 11.5838 9.02334 11.561C9.03418 11.5381 9.03723 11.5124 9.03201 11.4877C9.0101 11.1579 9.04396 10.8268 9.1322 10.5081C9.24394 10.0482 9.45917 9.6193 9.76179 9.25353C9.97222 8.9963 10.2384 8.7894 10.5406 8.6482C10.5585 8.63983 10.5759 8.62938 10.5991 8.61735C10.5881 8.59435 10.5801 8.57397 10.5696 8.55463C10.4492 8.33221 10.3764 8.08749 10.356 7.83586C10.317 7.46263 10.375 7.0988 10.4478 6.73445C10.5005 6.47674 10.539 6.21641 10.5759 5.95609C10.592 5.82379 10.592 5.69006 10.5759 5.55776C10.4984 5.55149 10.4267 5.54051 10.355 5.54104C10.1326 5.5358 9.9116 5.57713 9.70642 5.66231C9.30673 5.83952 9.07051 6.1516 8.97612 6.56822C8.88567 6.92937 8.93932 7.31118 9.12587 7.63408C9.13273 7.64611 9.138 7.6597 9.14538 7.6759C9.109 7.69158 9.08685 7.66911 9.06418 7.65499C8.96581 7.59696 8.88167 7.51799 8.81784 7.42379C8.75401 7.32959 8.71208 7.22252 8.69507 7.1103C8.60385 6.58129 8.71985 6.10298 9.09476 5.70465C9.43697 5.33873 9.86883 5.14741 10.3603 5.08521C10.3806 5.08313 10.4009 5.07999 10.4209 5.0758C10.4323 5.0718 10.4432 5.06672 10.4536 5.06064C10.4425 5.03293 10.4336 5.00366 10.4204 4.97648C10.3107 4.75111 10.1494 4.55423 9.9495 4.40146C9.80038 4.2798 9.63202 4.18336 9.45121 4.11605C9.08474 3.9885 8.75676 4.06377 8.46412 4.30946C8.2533 4.49386 8.08051 4.717 7.95528 4.96654C7.7419 5.36939 7.59925 5.80531 7.53344 6.25562C7.42799 6.92159 7.31514 7.58547 7.13112 8.23523C7.00162 8.72519 6.81252 9.19773 6.56797 9.64245C6.46293 9.83313 6.33703 10.0118 6.19254 10.1751C5.88354 10.5139 5.49967 10.69 5.03618 10.6696C4.42189 10.643 3.85926 10.2399 3.67735 9.67642C3.60581 9.4398 3.59818 9.18871 3.6552 8.94825C3.69527 8.7585 3.73746 8.56926 3.77806 8.38003C3.78862 8.34405 3.7936 8.30668 3.79282 8.26921C3.79048 8.25585 3.7852 8.24317 3.77736 8.23206C3.76953 8.22095 3.75932 8.21168 3.74748 8.20491C3.73524 8.20244 3.72256 8.20312 3.71065 8.20687C3.69875 8.21062 3.68801 8.21732 3.67945 8.22635C3.64908 8.26819 3.62493 8.31413 3.60774 8.36278C3.55071 8.53079 3.45208 8.68194 3.32089 8.8024C3.11525 8.99321 2.86373 9.03555 2.61116 8.91166C2.52109 8.86413 2.43596 8.80792 2.357 8.74386C2.30519 8.70148 2.24064 8.67739 2.1735 8.67538C2.1155 8.67538 2.0575 8.66702 1.99897 8.66336C1.86556 8.65447 1.77434 8.57763 1.69367 8.48144C1.66723 8.44749 1.63718 8.41647 1.60403 8.38892C1.51671 8.32515 1.44765 8.23994 1.40365 8.14166C1.36567 8.05029 1.30662 7.96901 1.23123 7.90434C1.19705 7.87941 1.16957 7.84654 1.15118 7.80863C1.13279 7.77072 1.12407 7.72891 1.12577 7.68688C1.12466 7.67471 1.12088 7.66292 1.11469 7.65236C1.10849 7.64179 1.10004 7.6327 1.08991 7.62572C0.968302 7.54071 0.842091 7.46235 0.711846 7.39101C0.645407 7.35651 0.560512 7.35546 0.484054 7.33874C0.457408 7.33617 0.431752 7.32739 0.40918 7.31312L0.657005 7.28437L0.575803 7.07109L0.590041 7.06221C0.625897 7.11448 0.658062 7.17198 0.6955 7.22269C0.725033 7.26165 0.760631 7.2957 0.800959 7.32358C0.926982 7.40721 1.05617 7.48563 1.18905 7.56926C1.28343 7.48981 1.3794 7.51385 1.47695 7.55829C1.56201 7.59764 1.65521 7.61662 1.74903 7.6137C1.85743 7.6124 1.96424 7.63964 2.05855 7.69263C2.1003 7.71213 2.14394 7.72737 2.1888 7.73811C2.24752 7.74997 2.30324 7.77344 2.35261 7.80712C2.40198 7.8408 2.44401 7.884 2.47617 7.93414C2.51299 7.99304 2.54678 8.05376 2.57741 8.11605C2.63383 8.23837 2.81786 8.29587 2.93017 8.27287C2.97316 8.2631 3.01292 8.24261 3.04568 8.21334C3.07844 8.18406 3.10311 8.14697 3.11736 8.10559C3.14583 8.03921 3.16693 7.96968 3.19329 7.90225C3.24086 7.76466 3.32287 7.64128 3.43162 7.54365C3.60352 7.39781 3.80495 7.33455 4.02536 7.38421C4.2832 7.44381 4.42821 7.62467 4.48832 7.87559C4.50568 7.96389 4.50207 8.05498 4.47778 8.14166C4.43665 8.32201 4.39288 8.50183 4.35861 8.68374C4.32286 8.85995 4.31946 9.0411 4.34859 9.2185C4.362 9.31584 4.39598 9.40927 4.44832 9.49268C4.50066 9.57609 4.57017 9.64761 4.65231 9.70256C4.73795 9.76396 4.83855 9.8016 4.94374 9.81162C5.04894 9.82164 5.15493 9.80366 5.25079 9.75954C5.37398 9.70557 5.48457 9.6269 5.5756 9.52849C5.76966 9.3342 5.90453 9.08961 5.96475 8.82279C6.21996 7.67695 6.47148 6.52954 6.7694 5.39362C6.84317 5.08067 6.94919 4.77605 7.08577 4.48458C7.23323 4.17199 7.43938 3.89009 7.69321 3.65395C7.99468 3.37118 8.38639 3.2018 8.80053 3.17512C9.46387 3.13591 10.066 3.30423 10.587 3.72243C10.8877 3.97064 11.1054 4.30347 11.2113 4.67695C11.2546 4.81756 11.282 4.96289 11.312 5.10716C11.3136 5.12829 11.3216 5.14845 11.335 5.16497C11.3483 5.18149 11.3664 5.1936 11.3869 5.19969C11.7837 5.34884 12.1458 5.5765 12.451 5.86879C12.7545 6.14204 12.9991 6.4733 13.1702 6.84266C13.3113 7.13956 13.381 7.46487 13.3737 7.793C13.3737 7.82384 13.3737 7.85468 13.3737 7.89075C13.4354 7.8965 13.4871 7.90068 13.5383 7.90643C13.8347 7.9437 14.118 8.04992 14.3651 8.21641C14.6454 8.40482 14.9001 8.62831 15.1228 8.88134C15.3137 9.10041 15.5235 9.3026 15.7497 9.48563C15.8272 9.54522 15.9079 9.59958 15.9886 9.65499C16.0021 9.6479 16.0148 9.6395 16.0266 9.6299C16.2327 9.41449 16.373 9.14548 16.431 8.85416C16.4622 8.69006 16.4586 8.52132 16.4203 8.35869C16.3821 8.19605 16.3102 8.0431 16.209 7.90957C15.986 7.59218 15.6474 7.37294 15.2646 7.29796C15.2119 7.28646 15.1523 7.28176 15.0964 7.27392L15.0927 7.25562C15.1201 7.24151 15.1455 7.2253 15.175 7.2138C15.3439 7.14519 15.5321 7.1387 15.7054 7.19551C15.7727 7.2146 15.8378 7.24071 15.8995 7.27339C16.3878 7.54522 16.6904 7.94668 16.7653 8.50497C16.8193 8.93621 16.7332 9.3733 16.5196 9.75274C16.5032 9.78254 16.4885 9.81286 16.4669 9.85416C16.5444 9.86775 16.6119 9.88552 16.6778 9.89075C17.0882 9.9246 17.4978 9.81735 17.8378 9.58704C18.1104 9.4046 18.2433 9.14166 18.2502 8.81443C18.2498 8.55608 18.1935 8.30082 18.0851 8.06587C17.9011 7.63908 17.6378 7.25038 17.3089 6.92002C16.9926 6.59749 16.6662 6.28123 16.354 5.95295C15.9215 5.50969 15.5391 5.021 15.2135 4.49556C15.0306 4.20183 14.8877 3.88545 14.7885 3.55463C14.6783 3.16989 14.6867 2.79091 14.8855 2.43544C15.1449 1.9702 15.5494 1.70674 16.0819 1.64872C16.5133 1.60167 16.8808 1.74229 17.1819 2.04914C17.3364 2.20596 17.4824 2.37219 17.6327 2.53424C17.6543 2.55724 17.6754 2.58181 17.6991 2.60272C17.7229 2.62363 17.7577 2.64558 17.7941 2.62154C17.8101 2.6107 17.8212 2.59413 17.8251 2.57531C17.8291 2.5565 17.8255 2.5369 17.8151 2.52065C17.8013 2.48622 17.7836 2.45343 17.7624 2.4229C17.654 2.27829 17.584 2.10895 17.5589 1.93048C17.5188 1.66911 17.6206 1.43701 17.8542 1.30319C17.9518 1.25189 18.0547 1.21106 18.161 1.18139C18.2261 1.16524 18.284 1.12854 18.3261 1.07684C18.3546 1.04025 18.3857 1.00575 18.4141 0.969158C18.4578 0.912691 18.5146 0.867613 18.5797 0.837828C18.6449 0.808043 18.7164 0.794449 18.788 0.798223C18.8228 0.797772 18.8575 0.792494 18.8908 0.782541C18.9958 0.744993 19.1095 0.738277 19.2183 0.7632C19.3179 0.787447 19.4221 0.786007 19.5209 0.759018C19.556 0.74786 19.5931 0.744603 19.6296 0.749487C19.6661 0.754371 19.701 0.767271 19.7319 0.787246C19.7441 0.794911 19.7583 0.79898 19.7727 0.79898C19.7872 0.79898 19.8014 0.794911 19.8136 0.787246C19.9528 0.727653 20.0946 0.673289 20.2307 0.606378C20.2812 0.573221 20.3268 0.533287 20.3662 0.487716C20.3852 0.469943 20.4026 0.450601 20.4189 0.431783L20.4421 0.453738ZM11.3542 5.86775C11.3484 5.91375 11.3431 5.94407 11.3405 5.97491C11.3352 6.03241 11.3326 6.08991 11.3273 6.14741C11.2867 6.50075 11.2662 6.85608 11.2662 7.21171C11.2674 7.42013 11.2913 7.6278 11.3373 7.83116C11.3662 7.97037 11.4232 8.10233 11.505 8.21903C11.5407 8.27227 11.5868 8.31794 11.6405 8.35339C11.6941 8.38883 11.7544 8.41335 11.8177 8.42551C12.0502 8.46419 12.19 8.43544 12.3218 8.20125C12.3586 8.13231 12.3861 8.05884 12.4035 7.98275C12.4489 7.78724 12.4451 7.58367 12.3925 7.38996C12.2541 6.83218 11.9378 6.33353 11.4908 5.96811C11.4512 5.93518 11.408 5.90695 11.3542 5.86775ZM9.6616 11.2473C9.67649 11.2468 9.69132 11.2451 9.7059 11.242C10.0043 11.1338 10.3044 11.0293 10.6023 10.9148C10.8954 10.8077 11.1729 10.6625 11.4275 10.483C11.55 10.3989 11.6553 10.2925 11.7376 10.1694C11.7944 10.086 11.826 9.98825 11.8286 9.88766C11.8312 9.78707 11.8047 9.68784 11.7523 9.60167C11.7103 9.52458 11.6404 9.46612 11.5567 9.43806C11.4514 9.40234 11.3387 9.39388 11.2292 9.41349C10.9836 9.45506 10.7544 9.56367 10.5675 9.72713C10.2594 9.98632 10.0134 10.3102 9.84721 10.6754C9.76018 10.8571 9.69776 11.0494 9.6616 11.2473ZM15.2905 10.1051C15.2821 10.0925 15.2726 10.0808 15.262 10.07C15.0421 9.885 14.8238 9.69786 14.6008 9.51647C14.3669 9.32001 14.1113 9.15059 13.8388 9.0115C13.6911 8.93341 13.5303 8.88241 13.3643 8.86095C13.2566 8.84401 13.1463 8.85994 13.0479 8.90662C12.9496 8.9533 12.8679 9.02853 12.8138 9.12232C12.7879 9.161 12.7703 9.2045 12.762 9.25015C12.7536 9.2958 12.7547 9.34266 12.7653 9.38787C12.8043 9.54635 12.8927 9.68864 13.0178 9.79456C13.1877 9.94573 13.3897 10.057 13.6089 10.1202C14.0008 10.2418 14.4148 10.2764 14.8217 10.2216C14.9817 10.2021 15.1386 10.163 15.2889 10.1051H15.2905Z" fill="#263238"/>
<path d="M20.4419 0.453738L20.4219 0.434396L20.4683 0.378464L20.4841 0.388396L20.4419 0.453738Z" fill="#263238"/>
</g>
<defs>
<clipPath id="clip0_674_19865">
<rect width="21" height="21" fill="white"/>
</clipPath>
</defs>
</svg>
