<svg width="13" height="19" viewBox="0 0 13 19" fill="none" xmlns="http://www.w3.org/2000/svg">
<g clip-path="url(#clip0_674_19860)">
<path d="M5.7942 0H7.22703L7.67773 0.10029C9.9531 0.615073 11.523 1.94107 12.2698 4.21601C12.7329 5.62743 12.9788 7.10274 12.999 8.59008C13.0203 10.05 12.8188 11.482 12.1559 12.8194C11.3872 14.3727 10.3988 15.7793 9.34404 17.1319C8.89648 17.707 8.29868 18.1882 7.69838 18.6071C6.94284 19.1339 6.09028 19.1257 5.3241 18.6122C4.79266 18.2561 4.26372 17.8448 3.86248 17.3503C2.72135 15.9437 1.67662 14.4622 0.869753 12.822C0.571794 12.2158 0.334554 11.5925 0.243789 10.9177C0.171804 10.3985 0.0841672 9.88117 0.00341797 9.36321V8.16099C0.0228228 8.07086 0.045359 7.98136 0.0597562 7.88995C0.208109 6.94544 0.299501 5.9857 0.514206 5.05769C1.03376 2.8056 2.2331 1.10637 4.48469 0.347843C4.91034 0.203755 5.35665 0.114255 5.7942 0ZM0.887904 9.88498C0.320156 12.3097 3.45435 15.4803 5.91877 14.8792C5.66838 14.2057 5.44992 13.5272 5.16761 12.8772C4.34885 10.9958 2.91477 9.99669 0.887904 9.88498ZM7.1757 14.9059C9.67956 15.3864 12.7386 12.2723 12.1139 9.8526C11.6895 9.93512 11.2545 9.98463 10.8388 10.1065C8.98787 10.6416 7.36474 12.7832 7.1757 14.9059Z" fill="#263238"/>
</g>
<defs>
<clipPath id="clip0_674_19860">
<rect width="13" height="19" fill="white"/>
</clipPath>
</defs>
</svg>
