<svg width="20" height="16" viewBox="0 0 20 16" fill="none" xmlns="http://www.w3.org/2000/svg">
<g clip-path="url(#clip0_674_19837)">
<path d="M9.45639 16C8.80376 15.6269 8.20766 15.29 7.61616 14.9491C6.88861 14.53 6.15975 14.113 5.43877 13.6821C5.34808 13.6276 5.25015 13.4923 5.25015 13.3944C5.24139 9.97897 5.23986 6.56354 5.24555 3.1481C5.25228 3.11227 5.26217 3.0771 5.27513 3.04301C5.63923 3.2486 5.99808 3.44761 6.35035 3.65057C7.27638 4.18324 8.19912 4.72314 9.13041 5.24728C9.36109 5.37864 9.46362 5.52249 9.46231 5.80426C9.45113 9.06798 9.45508 12.331 9.45508 15.5947L9.45639 16Z" fill="#263238"/>
<path d="M10.5513 15.9961V15.6066C10.5513 12.3326 10.5513 9.05791 10.5513 5.7826C10.5513 5.59212 10.5565 5.43843 10.7622 5.32283C12.053 4.59179 13.334 3.845 14.6195 3.10477C14.6603 3.08928 14.7026 3.07785 14.7457 3.07062C14.7509 3.19738 14.7608 3.311 14.7608 3.42463C14.7608 6.69951 14.7628 9.97417 14.7667 13.2486C14.7667 13.4989 14.6951 13.6282 14.471 13.7537C13.311 14.4039 12.1641 15.0785 11.012 15.7438C10.8805 15.8174 10.7471 15.8883 10.5513 15.9961Z" fill="#263238"/>
<path d="M0.00792196 3.05176e-05L3.22503 1.85093C3.44192 1.97572 3.6496 2.12482 3.87831 2.22203C4.17144 2.34683 4.25819 2.53336 4.25622 2.85191C4.24176 5.27425 4.24833 7.69724 4.24833 10.1202V10.5189C4.16215 10.4865 4.0777 10.4497 3.9953 10.4086C2.78469 9.71431 1.58 9.00955 0.362163 8.32778C0.0881003 8.17408 -0.0019401 7.99937 3.15751e-05 7.68672C0.0144905 5.26374 0.00792196 2.84141 0.00792196 0.418421V3.05176e-05Z" fill="#263238"/>
<path d="M15.7848 6.01642V5.0752C15.7848 4.27848 15.7782 3.48177 15.792 2.68571C15.792 2.56748 15.8577 2.3954 15.9517 2.34219C17.2589 1.57503 18.5753 0.823641 19.8898 0.0696178C19.9251 0.0583035 19.9614 0.0506027 19.9982 0.0466309V0.522821C19.9982 1.47257 20.0055 2.42167 19.989 3.37077C19.9837 3.4407 19.9634 3.50865 19.9293 3.56998C19.8953 3.63132 19.8484 3.68457 19.7919 3.72611C18.5247 4.47422 17.2484 5.20591 15.9734 5.94088C15.9121 5.96989 15.8491 5.99512 15.7848 6.01642Z" fill="#263238"/>
<path d="M19.9981 4.53267C19.9981 5.69129 20.0014 6.81511 19.9916 7.93826C19.9872 7.98834 19.972 8.03688 19.947 8.08053C19.9221 8.12419 19.8879 8.16192 19.847 8.19113C18.5207 8.96551 17.1892 9.73136 15.8215 10.5195C15.8045 10.4328 15.7928 10.345 15.7867 10.2568C15.7867 9.23086 15.7794 8.20492 15.7926 7.17898C15.7926 7.06272 15.8668 6.89392 15.9595 6.83941C17.2562 6.07619 18.5621 5.32873 19.866 4.57734C19.9089 4.55919 19.9531 4.54426 19.9981 4.53267Z" fill="#263238"/>
</g>
<defs>
<clipPath id="clip0_674_19837">
<rect width="20" height="16" fill="white"/>
</clipPath>
</defs>
</svg>
