<svg width="20" height="20" viewBox="0 0 20 20" fill="none" xmlns="http://www.w3.org/2000/svg">
<g clip-path="url(#clip0_674_19828)">
<path d="M17.6173 9.812C17.5356 9.73328 17.4358 9.67586 17.3267 9.6448C17.2176 9.61374 17.1026 9.61 16.9917 9.6339C16.8762 9.65277 16.7679 9.702 16.6777 9.77654C16.5876 9.85108 16.5189 9.94826 16.4787 10.0581C16.4275 10.1853 16.4085 10.3232 16.4234 10.4595C16.4369 10.6329 16.5109 10.7962 16.6324 10.9207C16.6994 10.9923 16.781 11.0486 16.8717 11.0859C16.9625 11.1231 17.0601 11.1403 17.1581 11.1364C17.2656 11.1372 17.3717 11.1121 17.4674 11.0633C17.5632 11.0144 17.6457 10.9433 17.7081 10.8558C17.809 10.7134 17.861 10.5421 17.8563 10.3676C17.8563 10.3473 17.8533 10.3103 17.8482 10.2738C17.8296 10.097 17.7476 9.93295 17.6173 9.812Z" fill="#263238"/>
<path d="M11.9137 9.80287C11.8361 9.73112 11.7432 9.67811 11.6419 9.64794C11.5407 9.61777 11.4338 9.61123 11.3296 9.62883C11.2229 9.6415 11.1209 9.68007 11.0324 9.74118C10.944 9.80229 10.8718 9.88409 10.8222 9.97946C10.7421 10.1296 10.7104 10.3008 10.7314 10.4696C10.7445 10.6168 10.8016 10.7567 10.8953 10.871C10.962 10.9568 11.0481 11.0257 11.1465 11.0718C11.245 11.1179 11.3529 11.1401 11.4616 11.1364C11.5755 11.138 11.6879 11.1105 11.7882 11.0564C11.8885 11.0023 11.9733 10.9235 12.0345 10.8274C12.121 10.6946 12.1663 10.5393 12.1649 10.3808C12.1603 10.3362 12.1588 10.291 12.1517 10.2464C12.1267 10.0752 12.0424 9.91832 11.9137 9.80287Z" fill="#263238"/>
<path d="M5.5572 9.60751C5.4445 9.57084 5.32421 9.56402 5.20809 9.58772C5.12216 9.60136 5.03981 9.632 4.96584 9.67782C4.89187 9.72365 4.82777 9.78375 4.77729 9.85462C4.66378 10.0147 4.60992 10.2095 4.62506 10.4052C4.62506 10.4311 4.62963 10.4559 4.63268 10.4894C5.06601 10.3093 5.4953 10.1342 5.92254 9.95357C5.9195 9.94444 5.91899 9.93987 5.91696 9.93581C5.88214 9.85972 5.83233 9.79143 5.77052 9.73502C5.7087 9.67861 5.63615 9.63524 5.5572 9.60751Z" fill="#263238"/>
<path d="M9.99975 -3.8147e-06C4.47698 -3.8147e-06 0 4.47697 0 9.99974C0 15.5225 4.47698 20 9.99975 20C15.5225 20 20 15.5225 20 9.99974C20 4.47697 15.5225 -3.8147e-06 9.99975 -3.8147e-06ZM3.83915 11.7214C3.81276 11.728 1.45072 11.729 1.41571 11.7214V8.23189H2.16162C2.16162 8.32627 2.16162 8.41963 2.16162 8.51249V11.0496H3.83611C3.84423 11.0734 3.84727 11.6732 3.83915 11.7194V11.7214ZM6.72384 10.1824L4.83725 10.9659C4.85146 10.9801 4.86211 10.9912 4.87378 11.0014C4.98065 11.0914 5.11052 11.1497 5.24877 11.1699C5.41765 11.199 5.59087 11.1906 5.75619 11.1455C5.86148 11.1141 5.96139 11.0668 6.05252 11.0055C6.10326 10.973 6.154 10.9385 6.20475 10.904L6.66955 11.2592C6.63583 11.2994 6.59846 11.3364 6.55792 11.3698C6.43116 11.4749 6.28936 11.5604 6.13726 11.6235C5.95656 11.7021 5.76428 11.7508 5.56794 11.7676C5.21274 11.795 4.87378 11.7392 4.56375 11.555C4.40791 11.4662 4.27265 11.3455 4.1669 11.2006C4.06116 11.0558 3.98733 10.8902 3.95028 10.7147C3.88222 10.4292 3.90365 10.1296 4.01167 9.85665C4.10603 9.61338 4.27088 9.40383 4.4851 9.25485C4.68693 9.11145 4.92307 9.02392 5.16961 9.00114C5.39144 8.97686 5.6159 8.9981 5.82925 9.06355C5.99508 9.11325 6.14838 9.19781 6.27886 9.31157C6.40934 9.42534 6.514 9.56569 6.58582 9.7232C6.65166 9.86356 6.69662 10.0128 6.71927 10.1662C6.72108 10.1708 6.72261 10.1756 6.72384 10.1804V10.1824ZM9.70342 11.6859V11.7199C9.67703 11.728 9.02043 11.73 8.96766 11.7199C8.96766 11.7032 8.96766 11.6849 8.96766 11.6692V10.2118C8.96959 10.1272 8.95224 10.0432 8.91691 9.96625C8.85776 9.84149 8.75509 9.74262 8.62819 9.68819C8.47136 9.61466 8.29235 9.60394 8.12787 9.65825C8.0162 9.69363 7.91833 9.76293 7.84785 9.8565C7.77737 9.95008 7.7378 10.0633 7.73462 10.1804C7.73462 10.2022 7.73462 10.224 7.73462 10.2464V11.725H7.00393C6.99582 11.6996 6.99328 9.08639 7.00089 9.04173C7.02576 9.03463 7.69352 9.03362 7.73411 9.04173V9.41773C7.74191 9.41137 7.74937 9.40459 7.75644 9.39743C7.93545 9.17623 8.19424 9.03427 8.47698 9.00215C8.73005 8.9655 8.98807 9.01595 9.20868 9.14524C9.32777 9.21413 9.43099 9.30735 9.51161 9.41883C9.59222 9.53031 9.64841 9.65754 9.67652 9.79221C9.69736 9.88375 9.70741 9.97741 9.70646 10.0713L9.70342 11.6859ZM12.7282 11.0263C12.592 11.2809 12.3789 11.486 12.1192 11.6123C11.9016 11.7195 11.6616 11.7732 11.419 11.7691C11.141 11.7697 10.8686 11.6903 10.6345 11.5403C10.4845 11.4476 10.3543 11.326 10.2518 11.1825C10.1493 11.039 10.0763 10.8765 10.0373 10.7045C9.96126 10.3999 9.99356 10.0782 10.1286 9.79475C10.2408 9.55415 10.4214 9.3519 10.6477 9.21324C10.8405 9.09218 11.0589 9.01814 11.2856 8.99708C11.6022 8.95907 11.9227 9.02476 12.1989 9.18432C12.3867 9.28796 12.5466 9.4355 12.665 9.61434C12.7834 9.79317 12.8568 9.998 12.8789 10.2113C12.9167 10.4923 12.8639 10.7779 12.7282 11.0268V11.0263ZM13.8861 11.7219L12.7799 9.0326H13.6207L14.2834 10.8497C14.2885 10.8497 14.2895 10.8527 14.29 10.8497C14.2905 10.8466 14.29 10.8497 14.293 10.8497C14.2945 10.848 14.2957 10.8461 14.2966 10.8441C14.2978 10.8422 14.2988 10.8401 14.2996 10.838C14.2996 10.8344 14.2996 10.8314 14.3032 10.8284C14.5197 10.233 14.7365 9.63795 14.9537 9.04325C14.9547 9.04112 14.9559 9.03908 14.9573 9.03716L14.9623 9.03158H15.794C15.794 9.05695 14.7188 11.6702 14.6909 11.7209L13.8861 11.7219ZM17.9282 11.5474C17.7009 11.6883 17.4395 11.7646 17.1721 11.7681C16.8568 11.7817 16.5456 11.6927 16.2852 11.5144C16.1331 11.4129 16.0037 11.2811 15.905 11.1273C15.8064 10.9734 15.7406 10.8008 15.7118 10.6203C15.6552 10.3151 15.7061 9.99966 15.8559 9.72776C15.9907 9.47729 16.2007 9.27536 16.4562 9.15032C16.6862 9.03689 16.9406 8.98182 17.197 8.98998C17.486 8.99452 17.7668 9.0871 18.0018 9.25536C18.149 9.35644 18.2743 9.4862 18.3703 9.63686C18.4662 9.78753 18.5307 9.956 18.5599 10.1322C18.6135 10.4162 18.5749 10.7099 18.4498 10.9704C18.3365 11.2107 18.1551 11.4123 17.9282 11.5504V11.5474Z" fill="#263238"/>
</g>
<defs>
<clipPath id="clip0_674_19828">
<rect width="20" height="20" fill="white"/>
</clipPath>
</defs>
</svg>
