<svg width="142" height="29" viewBox="0 0 142 29" fill="none" xmlns="http://www.w3.org/2000/svg">
<g clip-path="url(#clip0_27_968)">
<path d="M135.693 3.69668C135.693 2.05435 136.986 0.708176 138.569 0.708176C139.334 0.708176 140.046 1.03126 140.6 1.56973C141.154 2.13512 141.445 2.88898 141.445 3.66976C141.445 4.45054 141.154 5.2044 140.6 5.76979C140.046 6.33519 139.334 6.65827 138.569 6.65827C136.986 6.65827 135.693 5.33902 135.693 3.69668ZM135.455 3.69668C135.455 5.47363 136.854 6.9275 138.595 6.9275C139.439 6.9275 140.205 6.60442 140.785 5.98518C141.365 5.36594 141.708 4.55824 141.708 3.69668C141.708 2.83513 141.392 2.02743 140.785 1.40819C140.178 0.788946 139.413 0.465864 138.595 0.465864C136.854 0.465864 135.455 1.91973 135.455 3.69668ZM137.408 5.60825H137.856V4.10054H138.859C139.017 4.10054 139.149 4.10054 139.255 4.15438C139.387 4.23515 139.466 4.39669 139.492 4.61208L139.545 5.2044C139.545 5.33902 139.545 5.41979 139.545 5.47363C139.571 5.52748 139.571 5.5544 139.598 5.58133H140.152V5.50056C140.073 5.47363 140.046 5.39286 140.02 5.28517C139.993 5.23132 139.993 5.12363 139.993 4.98901L139.967 4.53131C139.967 4.31592 139.914 4.18131 139.862 4.10054C139.782 4.01977 139.677 3.939 139.545 3.88515C139.703 3.80438 139.809 3.69668 139.888 3.56207C139.967 3.42745 139.993 3.26591 139.993 3.05052C139.993 2.64667 139.835 2.37743 139.545 2.21589C139.387 2.13512 139.176 2.1082 138.938 2.1082H137.434L137.408 5.60825ZM137.83 3.69668V2.48513H138.885C139.044 2.48513 139.176 2.51205 139.255 2.5659C139.413 2.64667 139.492 2.83513 139.492 3.07744C139.492 3.31975 139.439 3.4813 139.308 3.56207C139.202 3.64284 139.044 3.69668 138.833 3.69668H137.83ZM12.8226 8.13906L0 28.7086H8.75949L21.1072 9.05446L12.8226 8.13906ZM65.617 7.68136V0.0620117H40.6841C37.2806 0.2774 35.8031 1.94666 34.695 3.13129C33.5077 4.39669 32.8481 7.06212 32.8481 7.06212V0.115859H19.5769C18.5743 0.115859 17.6245 0.546635 16.9121 1.56973C16.1734 2.5659 13.1392 7.68136 13.1392 7.68136H65.617ZM133.424 7.68136V0.0620117H106.75C103.373 0.2774 101.869 1.94666 100.76 3.13129C99.5732 4.39669 98.9136 7.06212 98.9136 7.06212V7.68136H133.424ZM74.3765 0.0889352H66.9098V7.68136H74.3765V0.0889352ZM98.8345 0.0889352H91.3942V7.68136H98.8345V0.0889352ZM98.8345 10.4276L91.4997 9.96986V18.7738C91.4997 18.7738 91.4733 21.3046 89.0724 21.3046H76.5136C76.5136 21.3046 74.3765 21.1162 74.3765 18.8008V8.78522L66.989 8.24675V21.7354C68.1763 28.1971 73.9016 28.7086 73.9016 28.7086C73.9016 28.7086 74.482 28.7355 74.5876 28.7625H91.6052C91.6052 28.7625 98.8872 28.1701 98.8872 21.0085L98.8345 10.4276ZM25.2495 28.7086H60.1291C66.1974 27.4701 66.8307 21.8162 66.8307 21.8162C67.1209 20.1469 66.9626 18.7738 66.9626 18.7738C66.7779 17.6431 64.6672 12.6353 60.1291 12.2045C57.4116 11.9353 33.2175 9.96986 33.2175 9.96986C33.6924 12.4468 34.7741 13.7122 35.5129 14.4122C37.2014 16.0546 39.8662 16.5392 39.8662 16.5392C40.4994 16.593 58.5197 18.1277 58.5197 18.1277C59.1002 18.1546 60.1819 18.3161 60.1555 19.77C60.1555 19.9585 59.9972 21.2239 58.6252 21.2239H32.5315V9.91601L25.2759 9.37754C25.2495 9.37754 25.2495 28.7086 25.2495 28.7086ZM98.8872 28.7625H125.588C132.289 28.3586 133.239 21.87 133.239 21.87C133.477 20.1739 133.292 18.7738 133.292 18.7738C133.107 17.2392 130.97 12.6084 126.406 12.1507C123.715 11.8814 99.3621 10.4276 99.3621 10.4276C100.075 12.9853 101.051 13.7661 101.789 14.4661C103.478 16.1353 105.985 16.5123 105.985 16.5123C106.618 16.5661 124.823 18.1277 124.823 18.1277C125.403 18.1546 126.59 18.2084 126.59 19.6623C126.59 20.0931 126.379 20.5508 126.116 20.7931C126.116 20.7931 125.482 21.1431 124.875 21.1431H98.9664L98.8872 28.7625Z" fill="#00539B"/>
</g>
<defs>
<clipPath id="clip0_27_968">
<rect width="141.708" height="28.7004" fill="white" transform="translate(0 0.0620117)"/>
</clipPath>
</defs>
</svg>
