<?xml version="1.0" encoding="utf-8"?>
<!-- Generator: Adobe Illustrator 24.1.2, SVG Export Plug-In . SVG Version: 6.00 Build 0)  -->
<svg version="1.1" id="Layer_1" xmlns="http://www.w3.org/2000/svg" xmlns:xlink="http://www.w3.org/1999/xlink" x="0px" y="0px"
	 viewBox="0 0 594.8 116.1">
<style type="text/css">
	.st0{fill:none;}
	.st1{fill:#232021;}
	.st2{fill:#242021;}
	.st3{fill:#231F20;}
	.st4{fill:#418EDB;}
	.st5{fill:#82B0D2;}
	.st6{fill:#97B4D2;}
	.st7{fill:#F6FBFB;}
	.st8{fill:#F7FBFB;}
	.st9{fill:#FAFDFC;}
	.st10{fill:#F8FCFB;}
	.st11{fill:#F9FCFC;}
	.st12{fill:#4790D9;}
	.st13{fill:#438FDA;}
</style>
<path class="st0" d="M396.8,116.1c-135.1,0-270,0-405,0c0-39.3,0-78.5,0-117.8c204,0,408,0,612,0c0,39.3,0,78.5,0,117.8
	C534.8,116.1,465.8,116.1,396.8,116.1 M403.3,34.6L403.3,34.6c-0.1,0,0,0,0.1,0.2c0.2,0.1,0.3,0.3,0.6,0.5c1.3,1.2,2.6,2.3,3.8,3.5
	c3.8,3.5,7.7,7,11.5,10.6c3.4,3.1,6.8,6.2,10.1,9.3c1.2,1.1,2.1,2.5,2.3,4.1c0.4,2.9,0.8,5.7,1.1,8.6c0.5,3.6,0.9,7.3,1.3,10.9
	c0.5,4.4,1.1,8.7,1.6,13.1c0.5,4,1,8.1,1.4,12.3c0,0.4,0.1,0.7,0.1,1.1c0.1,0,0.2,0,0.3,0c0-0.4,0.1-0.9,0.1-1.5
	c0.1-0.9,0.2-1.8,0.3-2.6c0.5-4.3,1.1-8.6,1.6-13c0.5-4.2,1-8.5,1.5-12.7c0.6-4.9,1.3-9.8,1.8-14.8c0.3-2.4,1.1-4.3,2.9-5.9
	c2.1-1.9,4.2-3.9,6.3-5.9c5.7-5.2,11.4-10.4,17-15.6c0.6-0.5,1.1-1.1,1.8-1.7c0-0.1,0-0.1,0-0.2c-0.1,0-0.1,0.1-0.4,0.1
	c-0.2,0.1-0.5,0.2-0.7,0.3c-5.3,2.6-10.5,5.3-15.8,7.9c-4.2,2.1-8.5,4.1-12.8,6.1c-2.6,1.2-5.3,1.3-7.9,0c-1.5-0.7-3.1-1.4-4.6-2.1
	c-6-2.9-11.9-5.9-17.9-8.8c-2.2-1.1-4.4-2.3-6.8-3.5C403.9,34.8,403.6,34.8,403.3,34.6 M554.7,40.9c-8.9-11.3-17.8-22.6-26.6-33.9
	c-8.6,0-17.2,0-25.8,0c0,33.5,0,66.9,0,100.3c1.5,0.3,26.9,0.2,27.7-0.1c0,0,0-0.1,0-0.1c0-18.2,0-36.4,0-54.6c0-0.1,0-0.2,0-0.2
	c0,0,0-0.1,0-0.1c0,0,0.1,0,0.2-0.1c0.3,0.3,0.5,0.7,0.8,1c12.9,17.8,25.9,35.6,38.8,53.4c0.4,0.6,0.8,0.9,1.6,0.9
	c7.6,0,15.1,0,22.7,0c0.3,0,0.6-0.1,1-0.1c0-33.5,0-66.9,0-100.4c-9.2,0-18.4,0-27.7,0c0,16.6,0,33.1,0,49.6c-0.1,0-0.1,0-0.2,0.1
	C563,51.5,558.9,46.3,554.7,40.9 M173.6,107.5c18.5,0,37,0,55.5,0c0-8,0-15.8,0-23.7c-18,0-35.9,0-53.8,0c-0.2-2.5-0.1-15.1,0.1-16
	c16,0,32.1,0,48.1,0c0-7.4,0-14.7,0-22.2c-16.1,0-32.2,0-48.3,0c0-5,0-10,0-15c1.6,0,3.1,0,4.5,0c1.5,0,3,0,4.5,0c1.5,0,3,0,4.5,0
	c1.5,0,3,0,4.5,0c1.5,0,3,0,4.5,0c1.5,0,3,0,4.5,0s3,0,4.5,0s3,0,4.5,0c1.5,0,3,0,4.5,0c1.5,0,3,0,4.5,0c1.5,0,3,0,4.5,0
	c1.5,0,3,0,4.4,0c0-7.9,0-15.7,0-23.5c-27.1,0-54.2,0-81.4,0c0,33.5,0,66.9,0,100.5C156.4,107.5,164.9,107.5,173.6,107.5
	 M315.4,46.4c-9.4,0-18.9,0-28.4,0c0,7.4,0,14.8,0,22.2c1.8,0,3.5,0,5.2,0c1.7,0,3.5,0,5.2,0c1.8,0,3.6,0,5.3,0c1.7,0,3.4,0,5.2,0
	c0,2.6,0,4.9,0,7.3c0,0.8-0.3,1.3-0.8,1.8c-7,6.2-15.1,8.5-24.3,6.8c-14.9-2.9-24.7-17.4-21.9-32.4c3.3-17.6,22.3-27.6,38.6-20.2
	c2,0.9,3.8,2.1,5.8,3.2c7.1-4.1,14.4-8.3,21.8-12.6c-0.3-0.3-0.5-0.6-0.7-0.8c-12.9-13.9-32.8-19.8-51.1-15
	c-27.4,7.1-44.2,34.4-38,62.1c5.9,26.6,32.1,45.3,60.9,39.8c14.2-2.7,25.3-10.4,33.5-22.3c0.5-0.7,0.6-1.3,0.6-2.1
	c0-12.1,0-24.2,0-36.4c0-0.4,0-0.8,0-1.3C326.8,46.4,321.2,46.4,315.4,46.4 M110.4,83.9c-8.9,0-17.8,0-26.8,0c0-25.7,0-51.3,0-76.8
	c-2.3-0.2-27.2-0.1-28,0.1c0,33.4,0,66.8,0,100.3c27,0,53.9,0,80.8,0c0-7.9,0-15.7,0-23.6C127.7,83.9,119.2,83.9,110.4,83.9
	 M372.8,53.9c0-15.6,0-31.2,0-46.9c-9.3,0-18.5,0-27.7,0c-0.2,2.1-0.1,99.6,0.1,100.4c9.1,0,18.3,0,27.6,0
	C372.8,89.7,372.8,71.9,372.8,53.9 M0,23.4C0,51,0,78.5,0,106.1c0,0.4,0,0.7,0,1.1c0,0.1,0,0.2,0,0.2c0,0,0,0.1,0,0.1
	c0,0,0.1,0.1,0.1,0.1c1.2,0.2,32.5,0.2,33.4-0.1c0-33.5,0-67.1,0-100.6C32.2,6.8,1,6.8,0,7.1C0,12.4,0,17.8,0,23.4 M410,46.5
	c-5.8-5.3-11.6-10.7-17.4-16c-8.5,13.3-10.8,33.7-1.4,51.4c10.3,19.2,28.9,26.7,41.4,27.3c-1-8.4-2-16.8-3.1-25.1
	c-15-4.6-24-20.5-18.4-36.3c0-0.1-0.1-0.2-0.1-0.2C410.8,47.2,410.5,46.9,410,46.5 M488.6,68.4c1.2-5.7,1.5-11.4,0.8-17.2
	c-0.8-7.1-3-13.8-6.6-20c-0.1-0.2-0.3-0.4-0.5-0.8c-6.3,5.8-12.5,11.5-18.7,17.2c5.6,16-3.6,32-18.4,36.4c-1,8.3-2,16.7-3.1,25.2
	c0.4,0,0.6,0,0.9,0c6.4-0.7,12.4-2.4,18.1-5.4C475.6,96.2,484.7,84.5,488.6,68.4 M472.3,29.6c2.4-1.2,4.7-2.3,7.1-3.5
	C471.5,15,456.2,4.9,437.3,4.9c-19.5,0.1-34.5,10.8-41.7,21.2c7.5,3.7,15,7.4,22.5,11c10.9-10.3,27.7-10.5,38.8,0
	C461.9,34.7,467,32.2,472.3,29.6z"/>
<path class="st1" d="M554.7,41c4.2,5.3,8.3,10.5,12.4,15.7c0.1,0,0.1,0,0.2-0.1c0-16.5,0-33,0-49.6c9.3,0,18.5,0,27.7,0
	c0,33.5,0,66.9,0,100.4c-0.3,0-0.6,0.1-1,0.1c-7.6,0-15.1,0-22.7,0c-0.8,0-1.2-0.4-1.6-0.9C556.9,88.8,543.9,71,531,53.2
	c-0.3-0.4-0.5-0.7-0.8-1c-0.1,0-0.1,0-0.2,0.1c0,0,0,0.1,0,0.1c0,0.1,0,0.2,0,0.2c0,18.2,0,36.4,0,54.6c0,0,0,0.1,0,0.1
	c-0.8,0.3-26.2,0.3-27.7,0.1c0-33.4,0-66.8,0-100.3c8.6,0,17.2,0,25.8,0C536.9,18.3,545.8,29.6,554.7,41z"/>
<path class="st2" d="M173.5,107.5c-8.6,0-17.1,0-25.7,0c0-33.6,0-67,0-100.5c27.1,0,54.2,0,81.4,0c0,7.8,0,15.6,0,23.5
	c-1.5,0.1-3,0-4.4,0c-1.5,0-3,0-4.5,0c-1.5,0-3,0-4.5,0c-1.5,0-3,0-4.5,0c-1.5,0-3,0-4.5,0s-3,0-4.5,0s-3,0-4.5,0c-1.5,0-3,0-4.5,0
	c-1.5,0-3,0-4.5,0c-1.5,0-3,0-4.5,0c-1.5,0-3,0-4.5,0c-1.5,0-3,0-4.5,0c0,5,0,10,0,15c16.1,0,32.1,0,48.3,0c0,7.4,0,14.8,0,22.2
	c-16.1,0-32.1,0-48.1,0c-0.3,0.9-0.4,13.5-0.1,16c17.9,0,35.8,0,53.8,0c0,7.9,0,15.7,0,23.7C210.6,107.5,192.1,107.5,173.5,107.5z"
	/>
<path class="st2" d="M315.6,46.4c5.7,0,11.3,0,16.9,0c0,0.5,0,0.9,0,1.3c0,12.1,0,24.2,0,36.4c0,0.8-0.2,1.5-0.6,2.1
	c-8.2,11.9-19.3,19.5-33.5,22.3c-28.8,5.5-55-13.1-60.9-39.8c-6.2-27.7,10.6-55,38-62.1c18.4-4.8,38.3,1.1,51.1,15
	c0.2,0.2,0.4,0.5,0.7,0.8c-7.4,4.2-14.7,8.5-21.8,12.6c-2-1.1-3.9-2.3-5.8-3.2c-16.3-7.3-35.4,2.7-38.6,20.2
	c-2.8,15,7,29.5,21.9,32.4c9.1,1.8,17.3-0.6,24.3-6.8c0.6-0.5,0.8-1,0.8-1.8c-0.1-2.4,0-4.8,0-7.3c-1.8,0-3.5,0-5.2,0
	c-1.8,0-3.6,0-5.3,0c-1.7,0-3.5,0-5.2,0c-1.7,0-3.5,0-5.2,0c0-7.4,0-14.8,0-22.2C296.5,46.4,306,46.4,315.6,46.4z"/>
<path class="st2" d="M110.5,83.9c8.7,0,17.2,0,25.9,0c0,7.9,0,15.7,0,23.6c-26.9,0-53.8,0-80.8,0c0-33.4,0-66.9,0-100.3
	c0.8-0.2,25.7-0.3,28-0.1c0,25.5,0,51.1,0,76.8C92.6,83.9,101.5,83.9,110.5,83.9z"/>
<path class="st3" d="M372.8,54c0,17.9,0,35.6,0,53.4c-9.3,0-18.4,0-27.6,0c-0.2-0.9-0.3-98.3-0.1-100.4c9.2,0,18.4,0,27.7,0
	C372.8,22.7,372.8,38.3,372.8,54z"/>
<path class="st4" d="M0,23.3c0-5.5,0-10.8,0-16.2C1,6.8,32.2,6.8,33.6,7c0,33.5,0,67,0,100.6c-0.9,0.3-32.1,0.3-33.4,0.1
	c0,0-0.1,0-0.1-0.1c0,0,0-0.1,0-0.1c0-0.1,0-0.2,0-0.2c0-0.4,0-0.7,0-1.1C0,78.5,0,51,0,23.3 M21.2,81.4c-0.3,0.3-0.5,0.3-0.6-0.1
	c-0.3-0.8-0.7-1.6-1-2.3c-0.8-2-1.7-4-2.5-6.1c-1.5,0.1-2.8,0.7-3.8,1.7c-2,1.8-2.6,5.2-1.3,8c1.2,2.5,3.2,3.7,6,3.8
	c2.8,0,4.8-1.2,6-3.7c1.3-3,0.9-5.9-0.9-8.6c-0.2-0.3-0.5-0.5-0.8-0.9c-0.6,0.8-1.2,1.5-1.7,2.2C22.1,77.9,22.2,79.3,21.2,81.4
	 M15.8,29.4c1.1,0.4,2.3,0.5,3.5,0.3c4.5-0.9,6.8-5.8,4.7-10c-1.2-2.5-3.2-3.8-6-3.7c-2.8,0-4.7,1.3-6,3.8
	C10.4,23.2,11.8,27.9,15.8,29.4 M22.3,55.6c1.8-1.6,2.6-3.7,2.4-6.1c-0.3-4.9-5.4-7.8-9.7-5.6c-3.5,1.8-4.7,6.5-2.6,9.9
	C14.4,57.3,19,58.2,22.3,55.6 M24.3,62c0.4-1.1,0.2-2.2,0.2-3.2c-0.2-0.1-0.2-0.2-0.3-0.2c-2.9,0-5.7-0.1-8.6,0
	c-1.3,0-2.4,0.8-3.2,1.8c-1.4,1.9-1.4,4.6,0,6.6c0.2,0.3,0.5,0.6,0.8,1c-0.6,0-1,0.1-1.5,0.1c0,1.1,0,2.2,0,3.3
	c2.1,0.2,11.9,0.1,12.7-0.1c0-1.1,0-2.1,0-3.3c-0.5,0-1,0-1.4,0c-1.9,0-3.7,0-5.6,0c-1.8,0-2.9-1.1-3-2.8c0-1.9,1.1-3.1,3-3.1
	C19.7,62.1,21.9,62.1,24.3,62 M13,33.8c2.3,0.8,4.7,1.7,7,2.5c0,0.1,0,0.2,0,0.2c-2.8,1-5.6,2.1-8.3,3.1c0,1.4,0,2.6,0,4.1
	c4.4-1.8,8.6-3.6,12.8-5.3c0-1.4,0-2.6,0-3.9c-4.2-1.7-8.5-3.5-12.8-5.2c0,1.5,0,2.7,0,4C12.1,33.5,12.5,33.6,13,33.8 M7.8,95
	c-0.1,1.1-0.1,2.2,0,3.3c1.8,0.2,15.7,0.2,16.6-0.1c0.2-2,0.1-10.6-0.1-11.4c-1,0-2,0-3.1,0c0,2.7,0,5.2,0,7.9c-0.5,0-1,0-1.4,0
	C15.9,94.8,11.9,94.8,7.8,95z"/>
<path class="st2" d="M410.1,46.5c0.4,0.4,0.7,0.7,1,1c0.1,0.1,0.1,0.1,0.1,0.2c-5.6,15.8,3.4,31.8,18.4,36.3c1,8.3,2,16.7,3.1,25.1
	c-12.5-0.7-31.1-8.1-41.4-27.3c-9.5-17.7-7.1-38,1.4-51.4C398.4,35.8,404.2,41.1,410.1,46.5z"/>
<path class="st2" d="M488.5,68.5c-3.8,16-13,27.7-27.4,35.4c-5.7,3-11.7,4.7-18.1,5.4c-0.2,0-0.5,0-0.9,0c1-8.5,2.1-16.8,3.1-25.2
	c14.8-4.5,24-20.5,18.4-36.4c6.2-5.7,12.4-11.4,18.7-17.2c0.2,0.3,0.4,0.5,0.5,0.8c3.5,6.2,5.7,12.9,6.6,20
	C490.1,57,489.7,62.7,488.5,68.5z"/>
<path class="st2" d="M472.2,29.7c-5.2,2.5-10.3,5-15.4,7.5c-11.1-10.5-27.9-10.3-38.8,0c-7.5-3.7-15-7.4-22.5-11
	c7.2-10.4,22.2-21.1,41.7-21.2c19-0.1,34.3,10.1,42.1,21.2C477,27.3,474.6,28.5,472.2,29.7z"/>
<path class="st4" d="M404.3,35.1c2.2,1.1,4.4,2.3,6.7,3.4c6,3,11.9,5.9,17.9,8.8c1.5,0.7,3.1,1.4,4.6,2.1c2.7,1.2,5.3,1.2,7.9,0
	c4.3-2,8.5-4,12.8-6.1c5.3-2.6,10.5-5.3,15.8-7.9c0.2-0.1,0.4-0.2,0.8-0.3c0.1,0,0.1,0.1,0.1,0.1c-0.6,0.6-1.1,1.2-1.7,1.7
	c-5.7,5.2-11.4,10.4-17,15.6c-2.1,1.9-4.2,3.9-6.3,5.9c-1.8,1.6-2.7,3.5-2.9,5.9c-0.5,4.9-1.2,9.8-1.8,14.8c-0.5,4.2-1,8.5-1.5,12.7
	c-0.5,4.3-1.1,8.6-1.6,13c-0.1,0.9-0.2,1.8-0.4,2.8c-0.2,0.1-0.3,0.1-0.4,0.1c-0.5-4-1-8.1-1.5-12.1c-0.5-4.4-1.1-8.7-1.6-13.1
	c-0.4-3.6-0.9-7.3-1.3-10.9c-0.4-2.9-0.7-5.8-1.1-8.6c-0.2-1.7-1.1-3-2.3-4.1c-3.4-3.1-6.8-6.2-10.1-9.3c-3.8-3.5-7.7-7-11.5-10.6
	c-1.3-1.2-2.5-2.3-3.8-3.6C404.2,35.1,404.2,35.1,404.3,35.1z"/>
<path class="st5" d="M437.2,107.7c0.1-0.1,0.2-0.1,0.4-0.1c0,0.4,0,0.9,0,1.3c-0.1,0-0.2,0-0.3,0
	C437.3,108.5,437.2,108.2,437.2,107.7z"/>
<path class="st6" d="M404.3,35c0,0.1-0.1,0.1-0.3,0.1c-0.3-0.1-0.5-0.2-0.7-0.4c0-0.1,0-0.1,0-0.1C403.6,34.8,403.9,34.8,404.3,35z"
	/>
<path class="st4" d="M470.9,35.1c0-0.1,0.1-0.1,0.2-0.1c0,0.1,0,0.1-0.1,0.2C470.9,35.1,470.9,35.1,470.9,35.1z"/>
<path class="st6" d="M403.3,34.6c0,0-0.1-0.1-0.1-0.1S403.3,34.6,403.3,34.6C403.3,34.7,403.3,34.7,403.3,34.6z"/>
<path class="st7" d="M21.3,81.3c0.9-2.1,0.8-3.4-0.7-6c0.5-0.7,1-1.4,1.7-2.2c0.3,0.4,0.6,0.6,0.8,0.9c1.8,2.7,2.3,5.6,0.9,8.6
	c-1.1,2.5-3.2,3.7-6,3.7c-2.8,0-4.8-1.3-6-3.8c-1.3-2.7-0.7-6.1,1.3-8c1.1-1,2.3-1.6,3.8-1.7C18,75,18.8,77,19.6,79
	c0.3,0.8,0.7,1.6,1,2.3C20.8,81.7,21,81.8,21.3,81.3 M14.7,81.3c0.9,1.3,2.1,1.7,3.8,1.5c-0.9-2.1-1.7-4.1-2.5-6
	c-0.3,0.1-0.4,0.1-0.5,0.2C14.2,77.9,13.9,79.3,14.7,81.3z"/>
<path class="st8" d="M15.7,29.4c-3.9-1.5-5.4-6.2-3.7-9.6c1.2-2.5,3.2-3.8,6-3.8c2.8,0,4.8,1.3,6,3.7c2.1,4.2-0.3,9.1-4.7,10
	C18.1,29.9,16.9,29.8,15.7,29.4 M19.1,26.1c0.2-0.1,0.4-0.1,0.6-0.2c1.5-0.7,2.2-2,2-3.6c-0.2-1.4-1.2-2.5-2.8-2.8
	c-1.5-0.3-2.8,0.1-3.8,1.4c-0.8,1.1-0.9,2.3-0.3,3.5c0.6,1.3,1.8,1.9,3.3,1.8C18.3,26.2,18.6,26.2,19.1,26.1z"/>
<path class="st8" d="M22.2,55.7c-3.3,2.6-7.8,1.6-9.8-1.8c-2.1-3.5-0.9-8.1,2.6-9.9c4.3-2.2,9.4,0.7,9.7,5.6
	C24.9,52,24.1,54,22.2,55.7 M14.8,48.5c-1.1,2.5,0.2,4.4,1.9,4.9c0.5,0.1,1,0.2,1.6,0.2c1.9-0.1,3.3-1.5,3.3-3.3
	c0-1.9-1.3-3.4-3.2-3.5C17,46.7,15.8,47.1,14.8,48.5z"/>
<path class="st9" d="M24.2,62c-2.3,0-4.5,0-6.7,0c-2,0-3.1,1.2-3,3.1c0,1.7,1.1,2.8,3,2.8c1.9,0,3.7,0,5.6,0c0.4,0,0.9,0,1.4,0
	c0,1.2,0,2.2,0,3.3c-0.8,0.3-10.6,0.3-12.7,0.1c0-1.1,0-2.2,0-3.3c0.5,0,0.9-0.1,1.5-0.1c-0.3-0.4-0.5-0.7-0.8-1
	c-1.4-1.9-1.5-4.7,0-6.6c0.8-1.1,1.9-1.8,3.2-1.8c2.9-0.1,5.7,0,8.6,0c0.1,0,0.1,0.1,0.3,0.2C24.4,59.8,24.7,60.9,24.2,62z"/>
<path class="st10" d="M12.9,33.8c-0.5-0.2-0.8-0.3-1.3-0.5c0-1.3,0-2.6,0-4c4.3,1.8,8.5,3.5,12.8,5.2c0,1.3,0,2.6,0,3.9
	c-4.2,1.7-8.4,3.5-12.8,5.3c0-1.4,0-2.7,0-4.1c2.7-1,5.5-2,8.3-3.1c0-0.1,0-0.2,0-0.2C17.7,35.5,15.3,34.7,12.9,33.8z"/>
<path class="st11" d="M7.9,94.9c4-0.1,8-0.1,11.9-0.1c0.4,0,0.9,0,1.4,0c0-2.7,0-5.3,0-7.9c1.1,0,2.1,0,3.1,0
	c0.3,0.8,0.3,9.4,0.1,11.4c-0.9,0.2-14.8,0.3-16.6,0.1C7.6,97.2,7.7,96.1,7.9,94.9z"/>
<path class="st12" d="M14.6,81.2c-0.8-2-0.5-3.3,0.9-4.3c0.1-0.1,0.2-0.1,0.5-0.2c0.8,2,1.6,4,2.5,6C16.8,83,15.6,82.6,14.6,81.2z"
	/>
<path class="st13" d="M19,26.2c-0.4,0-0.7,0.1-0.9,0.1c-1.4,0-2.6-0.5-3.3-1.8c-0.6-1.2-0.5-2.4,0.3-3.5c1-1.2,2.2-1.7,3.8-1.4
	c1.6,0.3,2.6,1.4,2.8,2.8c0.2,1.7-0.5,2.9-2,3.6C19.5,26,19.3,26.1,19,26.2z"/>
<path class="st13" d="M14.9,48.4c0.9-1.3,2-1.8,3.5-1.7c2,0.1,3.3,1.6,3.2,3.5c0,1.9-1.4,3.3-3.3,3.3c-0.5,0-1.1,0-1.6-0.2
	C15,52.9,13.7,51,14.9,48.4z"/>
</svg>
