<svg width="125" height="40" viewBox="0 0 125 40" fill="none" xmlns="http://www.w3.org/2000/svg">
<g clip-path="url(#clip0_27_972)">
<path d="M119.04 7.78562C118.645 7.22252 118.194 6.84711 116.257 6.69963C115.752 6.65941 114.074 6.60578 111.264 6.60578C103.869 6.60578 98.8486 8.81799 96.2837 13.1888C96.9931 8.79118 92.641 6.59237 83.241 6.59237C72.2038 6.59237 65.3141 10.9766 62.5718 19.7584C61.5622 22.3326 61.4531 25.1481 62.258 27.7894L59.6522 27.9637C57.6194 28.1112 54.9318 28.2586 53.2946 28.2586C49.2563 28.2586 46.7459 27.5883 45.7773 26.2475C44.9041 25.0409 44.9996 22.8153 46.0092 19.5573C47.6873 14.1675 51.8621 11.7408 58.5335 11.7408C61.9852 11.7408 65.355 12.1028 65.355 12.1028C65.7643 12.0358 66.0508 11.6603 65.9826 11.2447C65.9826 11.2313 65.9826 11.2179 65.9689 11.2045L65.9007 10.695L65.6688 8.88503C65.5187 7.69177 64.6183 6.99459 62.9811 6.76667C61.4804 6.67281 60.3753 6.59237 58.7245 6.59237H58.629C49.9111 6.60578 43.84 9.43473 40.4019 15.0792C41.6571 9.42132 37.6188 6.59237 28.287 6.59237C24.5624 6.52534 20.8379 6.67282 17.127 7.03481C15.7218 7.02141 14.453 7.86607 13.9618 9.15317L13.2251 11.4861C13.0887 11.9151 13.2933 12.1296 13.8527 12.1296H13.8663C14.2756 12.076 15.8582 11.9285 18.5595 11.714C22.134 11.4324 24.7671 11.2849 26.5134 11.2849C31.6568 11.2849 33.8124 12.5586 33.0074 15.0926C32.8574 15.6289 32.4071 16.0445 31.8478 16.1384C26.9909 16.9294 23.1299 17.5059 20.2785 17.8545C12.2428 18.8601 7.60416 21.3404 6.36265 25.2688C4.65727 30.672 8.94118 33.3802 19.2416 33.3802C23.5665 33.4339 27.8913 33.1389 32.1752 32.5088C34.1807 32.1736 35.204 31.6641 35.5996 30.3904L37.5233 24.3705C37.3323 30.377 41.6025 33.4071 50.375 33.4071C53.4174 33.4607 56.4461 33.3266 59.4612 32.9914C61.2621 32.6831 62.1216 32.2942 62.5173 30.9535L62.8993 29.0631C64.7683 31.9322 68.8613 33.3668 75.1916 33.3668C81.863 33.3668 85.7513 33.1791 86.8564 32.8171C87.634 32.6562 88.2753 32.1199 88.5618 31.396C88.6027 31.2753 88.63 31.1412 88.6436 31.0205L89.4486 28.4597C89.585 28.0173 89.3803 27.8028 88.8346 27.8162L84.5644 28.0173C81.713 28.1782 79.4892 28.2586 77.8793 28.2452C75.7783 28.3525 73.6772 28.1514 71.6308 27.6285C69.9936 27.0788 68.984 25.4699 69.216 23.794L82.7362 22.0778C88.7937 21.3136 92.8593 19.4634 94.9058 16.554L90.3217 32.3211C90.2262 32.5624 90.2671 32.8305 90.4172 33.0316C90.6628 33.2596 90.9766 33.3668 91.304 33.3266H96.8976C97.5389 33.4205 98.1664 33.0316 98.3438 32.4149L103.283 15.401C103.937 13.162 106.011 12.076 109.654 12.076C112.942 12.076 115.411 12.1028 116.994 12.1698C117.035 12.1698 117.076 12.1698 117.117 12.1698C117.649 12.1698 118.126 11.8212 118.263 11.3118L119.136 8.97888C119.313 8.59007 119.272 8.13422 119.04 7.78562ZM28.8327 28.2452C26.336 28.5536 23.812 28.6877 21.3017 28.6474C15.6126 28.6474 13.1296 27.5078 13.8527 25.242C14.3711 23.6197 15.8582 22.641 18.3276 22.3058L31.2611 20.5896L28.8327 28.2452ZM88.63 14.4625C88.0842 16.2054 85.5603 17.3987 81.0445 18.0422L70.2665 19.5573L70.5393 18.6858C71.0714 16.3529 72.4084 14.2882 74.3457 12.8268C75.9829 11.7944 78.6433 11.2715 82.3542 11.2715C87.1974 11.2581 89.2985 12.3307 88.63 14.4625Z" fill="#80C343"/>
</g>
<defs>
<clipPath id="clip0_27_972">
<rect width="124.668" height="39.4631" fill="white" transform="translate(0.29248 0.268066)"/>
</clipPath>
</defs>
</svg>
