<svg id="Layer_1" data-name="Layer 1" xmlns="http://www.w3.org/2000/svg" width="481.75" height="104.55" viewBox="0 0 481.75 104.55">
  <defs>
    <style>
      .cls-1 {
        fill: #212121;
      }
    </style>
  </defs>
  <title>acer_predator_logo-freelogovectors.net</title>
  <path id="path828" class="cls-1" d="M89.13,197.72v59.49l-17,17.05V259l5.49-5.49V238.72l-9,14.16v49.38l-8.08-20.52-9.24-9.22V210.14l10.39,29.17L79,221.71Zm-80,0v59.49l17,17.05V259l-5.49-5.22V239l9,13.87v49.39l8.09-20.52L47,272.53V210.14L36.56,239,19.23,221.41Zm385.27,31.2-6,10.68h2.87v23.69l3.19,5.78h35.24l3.17-5.78V234.7l-3.17-5.78Zm9.83,29.46V239.6h15.3v18.78ZM256.35,228.92l-6.06,10.68h2.89v29.47H291.6l3.16-5.78V234.7l-3.17-5.78Zm25.13,29.46h-15.3V239.6h15.29Zm69.32-29.46-6.06,10.68h14.73v30.32l13.27-6.63V239.6H382l6.07-10.68Zm-111.48,26,6.05-10.69H223.72v-4.33h19.34l6.08-10.69H210.71v40.15h28.6l6.06-10.69H224v-3.46h15.3Zm-32.64-15.32L198,228.91H160.18v41l13.29-6.64V239.6h13.28l1.16,1.43-13,12.16L211.59,280,192,255.78ZM490.87,280l-19.64-24.26,15-16.18-8.68-10.67H439.46v41l13.29-6.64V239.6H466l1.16,1.43-13,12.16Zm-185.42-51.1-6.06,10.68h2.87v30.32l13.31-6.63V254.9h14.14v15.3L343,263.57V235l-3.18-5.77Zm24,15.88H315.27v-4.9h14.15Zm-172.71-5.19-8.66-10.68H113.39l-6.06,10.68h2.87v30.32l13.29-6.63V253.19l9.54,4.34Zm-33.5,0H136.5l1.15,1.44-14.73,10.11Z" transform="translate(-9.13 -197.72)"/>
</svg>
