<svg width="18" height="18" viewBox="0 0 18 18" fill="none" xmlns="http://www.w3.org/2000/svg">
<path d="M9.3975 15.315H4.6575C2.2875 15.315 1.5 13.74 1.5 12.1575V5.8425C1.5 3.4725 2.2875 2.685 4.6575 2.685H9.3975C11.7675 2.685 12.555 3.4725 12.555 5.8425V12.1575C12.555 14.5275 11.76 15.315 9.3975 15.315Z" stroke="#292D32" stroke-width="1.5" stroke-linecap="round" stroke-linejoin="round"/>
<path d="M14.6402 12.825L12.5552 11.3625V6.63L14.6402 5.1675C15.6602 4.455 16.5002 4.89 16.5002 6.1425V11.8575C16.5002 13.11 15.6602 13.545 14.6402 12.825Z" stroke="#292D32" stroke-width="1.5" stroke-linecap="round" stroke-linejoin="round"/>
<path d="M8.625 8.25C9.24632 8.25 9.75 7.74632 9.75 7.125C9.75 6.50368 9.24632 6 8.625 6C8.00368 6 7.5 6.50368 7.5 7.125C7.5 7.74632 8.00368 8.25 8.625 8.25Z" stroke="#292D32" stroke-width="1.5" stroke-linecap="round" stroke-linejoin="round"/>
</svg>
