<svg width="18" height="18" viewBox="0 0 18 18" fill="none" xmlns="http://www.w3.org/2000/svg">
<path d="M9 16.5C12.0975 16.5 14.625 13.9725 14.625 10.875V7.125C14.625 4.0275 12.0975 1.5 9 1.5C5.9025 1.5 3.375 4.0275 3.375 7.125V10.875C3.375 13.9725 5.9025 16.5 9 16.5Z" stroke="#292D32" stroke-width="1.5" stroke-linecap="round" stroke-linejoin="round"/>
<path d="M9 8.25C8.3775 8.25 7.875 7.7475 7.875 7.125V5.625C7.875 5.0025 8.3775 4.5 9 4.5C9.615 4.5 10.125 5.0025 10.125 5.625V7.125C10.125 7.7475 9.615 8.25 9 8.25Z" stroke="#292D32" stroke-width="1.5" stroke-linecap="round" stroke-linejoin="round"/>
<path d="M9 4.5V1.5" stroke="#292D32" stroke-width="1.5" stroke-linecap="round" stroke-linejoin="round"/>
</svg>
