<svg width="18" height="18" viewBox="0 0 18 18" fill="none" xmlns="http://www.w3.org/2000/svg">
<path d="M2.625 5.25V12.75C2.625 15 3.7275 16.5 6.375 16.5H11.625C14.2275 16.5 15.375 15 15.375 12.75V11.8725C15.375 11.475 15.2175 11.0925 14.9325 10.815L14.31 10.1925C14.025 9.9075 13.8675 9.5325 13.8675 9.135V7.5C13.8675 7.0875 14.205 6.75 14.6175 6.75C15.03 6.75 15.3675 6.4125 15.3675 6V5.25C15.3675 3 14.22 1.5 11.6175 1.5H6.3675C3.7275 1.5 2.625 3 2.625 5.25Z" stroke="#292D32" stroke-width="1.5" stroke-linecap="round" stroke-linejoin="round"/>
<path d="M5.99236 16.4775L5.98486 14.25C5.98486 13.4175 6.65236 12.75 7.48486 12.75H10.4924C11.3174 12.75 11.9849 13.4175 11.9924 14.2425L12.0149 16.485" stroke="#292D32" stroke-width="1.5" stroke-linecap="round" stroke-linejoin="round"/>
<path d="M6.70508 3.7125L6.74258 1.545" stroke="#292D32" stroke-width="1.5" stroke-linecap="round" stroke-linejoin="round"/>
<path d="M8.95508 3.7125L8.99258 1.545" stroke="#292D32" stroke-width="1.5" stroke-linecap="round" stroke-linejoin="round"/>
<path d="M11.2051 3.69L11.2426 1.53" stroke="#292D32" stroke-width="1.5" stroke-linecap="round" stroke-linejoin="round"/>
</svg>
