<svg width="18" height="18" viewBox="0 0 18 18" fill="none" xmlns="http://www.w3.org/2000/svg">
<g clip-path="url(#clip0_607_18454)">
<path d="M10.3267 14.9062C10.0381 14.9052 9.75257 14.8471 9.48648 14.7353C9.2204 14.6236 8.97902 14.4603 8.77624 14.2549L3.7449 9.23793C3.53851 9.03225 3.37475 8.78784 3.26301 8.51872C3.15127 8.2496 3.09375 7.96106 3.09375 7.66965C3.09375 7.37824 3.15127 7.0897 3.26301 6.82058C3.37475 6.55145 3.53851 6.30704 3.7449 6.10137L7.62112 2.22428C8.50695 1.34024 9.7072 0.84375 10.9585 0.84375C12.2099 0.84375 13.4102 1.34024 14.296 2.22428L15.7728 3.70145C16.2114 4.13966 16.5593 4.66003 16.7967 5.23282C17.0341 5.80561 17.1562 6.41957 17.1562 7.03962C17.1562 7.65967 17.0341 8.27364 16.7967 8.84642C16.5593 9.41921 16.2114 9.93958 15.7728 10.3778L11.8966 14.2549C11.6914 14.4624 11.4468 14.6269 11.1773 14.7388C10.9077 14.8506 10.6186 14.9075 10.3267 14.9062ZM10.9547 2.39487C10.5386 2.39436 10.1266 2.47595 9.74216 2.63495C9.35771 2.79396 9.00839 3.02726 8.71422 3.3215L4.83799 7.19858C4.71325 7.3236 4.64319 7.49302 4.64319 7.66965C4.64319 7.84628 4.71325 8.01569 4.83799 8.14071L9.87708 13.1809C10.004 13.302 10.1726 13.3696 10.348 13.3696C10.5234 13.3696 10.6921 13.302 10.819 13.1809L14.6952 9.30384C15.2889 8.70921 15.6223 7.90322 15.6223 7.06288C15.6223 6.22255 15.2889 5.41656 14.6952 4.82193L13.1951 3.3215C12.901 3.02726 12.5516 2.79396 12.1672 2.63495C11.7827 2.47595 11.3707 2.39436 10.9547 2.39487Z" fill="#292D32"/>
<path d="M5.52802 17.1562C5.26439 17.1566 5.00329 17.1048 4.7598 17.0039C4.51631 16.9029 4.29526 16.7547 4.1094 16.5679L1.43276 13.8935C1.24604 13.7072 1.09791 13.4859 0.996839 13.2424C0.895771 12.9988 0.84375 12.7378 0.84375 12.4741C0.84375 12.2105 0.895771 11.9494 0.996839 11.7058C1.09791 11.4623 1.24604 11.2411 1.43276 11.0548L4.1094 8.38035C4.18042 8.30931 4.26477 8.25295 4.35761 8.2145C4.45045 8.17604 4.54996 8.15625 4.65046 8.15625C4.75096 8.15625 4.85048 8.17604 4.94332 8.2145C5.03616 8.25295 5.1205 8.30931 5.19153 8.38035L9.61946 12.8237C9.69056 12.8947 9.74697 12.9789 9.78546 13.0717C9.82394 13.1645 9.84375 13.2639 9.84375 13.3643C9.84375 13.4647 9.82394 13.5642 9.78546 13.6569C9.74697 13.7497 9.69056 13.834 9.61946 13.9049L6.94282 16.5793C6.56601 16.9508 6.05737 17.1582 5.52802 17.1562ZM4.6562 10.0232L2.53018 12.1474C2.48508 12.1918 2.44932 12.2448 2.42502 12.3032C2.40072 12.3616 2.38837 12.4242 2.3887 12.4875C2.38845 12.5501 2.40085 12.6122 2.42516 12.67C2.44947 12.7278 2.48519 12.78 2.53018 12.8237L5.20682 15.4981C5.29746 15.5861 5.41885 15.6353 5.54523 15.6353C5.6716 15.6353 5.79299 15.5861 5.88363 15.4981L8.00965 13.3739L4.6562 10.0232Z" fill="#292D32"/>
<path fill-rule="evenodd" clip-rule="evenodd" d="M4.65037 8.25624C4.56299 8.25624 4.47648 8.27345 4.39578 8.30688C4.31507 8.34031 4.24176 8.3893 4.18002 8.45105L1.50334 11.1255C1.32593 11.3025 1.18513 11.5128 1.0891 11.7442C0.993078 11.9756 0.943652 12.2236 0.943652 12.4741C0.943652 12.7246 0.993078 12.9726 1.0891 13.204C1.18513 13.4354 1.32587 13.6456 1.50329 13.8227L4.17998 16.4971C4.35652 16.6746 4.56672 16.8155 4.79801 16.9115C5.02931 17.0074 5.27734 17.0566 5.52777 17.0562C6.03063 17.0581 6.51432 16.8611 6.87229 16.5083C6.87222 16.5084 6.87237 16.5083 6.87229 16.5083L9.54868 13.8342C9.61048 13.7725 9.65955 13.6992 9.69299 13.6186C9.72644 13.538 9.74365 13.4516 9.74365 13.3643C9.74365 13.277 9.72644 13.1906 9.69299 13.11C9.65955 13.0294 9.61052 12.9561 9.54872 12.8945L5.12071 8.45105C5.05898 8.3893 4.98566 8.34031 4.90495 8.30688C4.82425 8.27345 4.73774 8.25624 4.65037 8.25624ZM4.31924 8.1221C4.42422 8.07862 4.53673 8.05624 4.65037 8.05624C4.764 8.05624 4.87651 8.07862 4.98149 8.1221C5.08646 8.16558 5.18183 8.22931 5.26215 8.30965L9.69 12.7529C9.68996 12.7529 9.69005 12.753 9.69 12.7529M9.69 13.9757L7.0134 16.6501C6.61778 17.0401 6.08329 17.2583 5.52755 17.2562C5.52737 17.2562 5.52772 17.2562 5.52755 17.2562C5.2509 17.2566 4.97691 17.2022 4.72139 17.0962C4.46577 16.9902 4.2337 16.8347 4.03856 16.6385L1.36203 13.9642C1.16603 13.7687 1.01048 13.5364 0.904378 13.2807C0.79827 13.025 0.743652 12.7509 0.743652 12.4741C0.743652 12.1973 0.798269 11.9232 0.904378 11.6675C1.01049 11.4118 1.166 11.1795 1.36203 10.984L4.03858 8.30965C4.03857 8.30966 4.03859 8.30963 4.03858 8.30965C4.11889 8.22933 4.21429 8.16557 4.31924 8.1221M4.6561 9.88184L8.15103 13.3739L5.9532 15.5699C5.84389 15.676 5.6975 15.7353 5.54513 15.7353C5.39276 15.7353 5.24638 15.676 5.13707 15.5698L5.13604 15.5688L2.45991 12.8949C2.40552 12.842 2.36232 12.7787 2.33289 12.7088C2.30342 12.6387 2.28836 12.5635 2.2886 12.4875C2.28827 12.4111 2.30323 12.3353 2.3326 12.2647C2.36198 12.1941 2.40518 12.1301 2.45967 12.0764C2.45957 12.0765 2.45976 12.0763 2.45967 12.0764L4.6561 9.88184ZM4.6561 10.1646L2.60076 12.2182C2.56518 12.2532 2.53642 12.2955 2.51725 12.3416C2.49808 12.3876 2.48834 12.4371 2.4886 12.487C2.4884 12.5362 2.49814 12.5858 2.51724 12.6312C2.53633 12.6766 2.56438 12.7176 2.59972 12.7519L2.60077 12.7529L5.27686 15.4268C5.34877 15.4964 5.44498 15.5353 5.54513 15.5353C5.64528 15.5353 5.74148 15.4964 5.8134 15.4268L7.86807 13.3739L4.6561 10.1646Z" fill="#292D32"/>
<path d="M12.4096 5.58399C12.2486 5.42978 12.0348 5.34375 11.8125 5.34375C11.5902 5.34375 11.3764 5.42978 11.2154 5.58399C11.0976 5.70264 11.0173 5.85375 10.9849 6.01822C10.9524 6.18269 10.9692 6.35314 11.0331 6.50803C11.097 6.66291 11.2051 6.79529 11.3439 6.88842C11.4826 6.98154 11.6457 7.03125 11.8125 7.03125C11.9793 7.03125 12.1424 6.98154 12.2811 6.88842C12.4199 6.79529 12.528 6.66291 12.5919 6.50803C12.6558 6.35314 12.6726 6.18269 12.6401 6.01822C12.6077 5.85375 12.5274 5.70264 12.4096 5.58399Z" fill="#292D32"/>
<path fill-rule="evenodd" clip-rule="evenodd" d="M11.1462 5.51179C11.3256 5.33978 11.5642 5.24374 11.8124 5.24374C12.0606 5.24374 12.2992 5.33978 12.4787 5.51179L12.4804 5.51349L12.4804 5.51351C12.6122 5.64618 12.7019 5.81509 12.7381 5.99886C12.7744 6.18262 12.7557 6.37307 12.6842 6.54616C12.6128 6.71925 12.4919 6.86727 12.3368 6.97144C12.1816 7.07561 11.9991 7.13124 11.8124 7.13124C11.6257 7.13124 11.4432 7.07561 11.288 6.97144C11.1329 6.86727 11.012 6.71925 10.9406 6.54616C10.8691 6.37307 10.8504 6.18262 10.8867 5.99886C10.9229 5.81509 11.0126 5.64618 11.1444 5.51351L11.1461 5.51177L11.1462 5.51179ZM11.2854 5.65534C11.1819 5.75983 11.1115 5.89281 11.0829 6.03758C11.0542 6.18275 11.0691 6.3332 11.1254 6.46989C11.1818 6.60657 11.2772 6.7233 11.3995 6.80538C11.5218 6.88747 11.6655 6.93124 11.8124 6.93124C11.9593 6.93124 12.103 6.88747 12.2253 6.80538C12.3476 6.7233 12.443 6.60657 12.4994 6.46989C12.5558 6.3332 12.5706 6.18275 12.5419 6.03758C12.5134 5.89281 12.4429 5.75983 12.3394 5.65534C12.1971 5.51945 12.0085 5.44374 11.8124 5.44374C11.6163 5.44374 11.4277 5.51945 11.2854 5.65534Z" fill="#292D32"/>
</g>
<defs>
<clipPath id="clip0_607_18454">
<rect width="18" height="18" fill="white"/>
</clipPath>
</defs>
</svg>
