<svg width="17" height="17" viewBox="0 0 17 17" fill="none" xmlns="http://www.w3.org/2000/svg">
<path d="M14.669 7.72173V7.44218C14.669 6.54346 14.669 5.64486 14.669 4.74638C14.669 4.16952 14.365 3.86749 13.7873 3.86712H6.98555C6.94931 4.07669 6.92793 4.2801 6.87683 4.47553C6.74716 4.96243 6.46123 5.39323 6.06299 5.70171C5.66476 6.01019 5.17627 6.17926 4.67264 6.18293C4.16527 6.18547 3.66007 6.18293 3.15378 6.18293C2.26514 6.18293 1.62512 5.58938 1.55554 4.70178C1.55055 4.6792 1.54389 4.65702 1.53561 4.63543C1.39064 4.63543 1.23553 4.64595 1.08223 4.63326C0.47483 4.58322 0.0192783 4.10643 0.00804359 3.49983C-0.00137911 2.97505 -0.00137911 2.4504 0.00804359 1.92586C0.00878775 1.6362 0.119059 1.35756 0.316705 1.1459C0.514351 0.934235 0.784733 0.805237 1.07353 0.784817C1.28337 0.767413 1.51676 0.829414 1.69942 0.755447C1.8712 0.686194 1.9821 0.476622 2.13431 0.34573C2.37089 0.134504 2.67512 0.0147877 2.99214 0.00816671C3.66043 0.000552497 4.33306 -0.0175765 4.99628 0.0400739C6.00124 0.127094 6.88082 1.08322 6.9475 2.08576C6.95185 2.15828 6.96127 2.22753 6.96997 2.31455H7.23236C9.43268 2.31455 11.6329 2.31455 13.833 2.31455C15.0253 2.31455 15.9498 3.06618 16.1828 4.23079C16.2134 4.40893 16.2267 4.58962 16.2223 4.77031C16.226 5.76548 16.226 6.76064 16.2223 7.75581C16.2223 7.87437 16.2531 7.94943 16.3553 8.02303C16.7743 8.3247 16.9932 8.7482 16.995 9.25871C17.003 11.3269 17.003 13.3953 16.995 15.4639C16.9892 16.3436 16.2861 17.0009 15.3855 17.0009C12.9695 17.0009 10.5523 17.0009 8.13404 17.0009C5.96392 17.0009 3.79379 17.0009 1.62367 17.0009C1.06991 17.0009 0.61762 16.7903 0.290363 16.3352C0.104744 16.0796 0.00546126 15.7715 0.0069564 15.4556C0.00369469 13.399 7.05777e-05 11.3428 0.0069564 9.28627C0.0102181 8.3693 0.700612 7.72427 1.65883 7.72354C4.08819 7.72209 6.51744 7.72209 8.94656 7.72354H14.669V7.72173ZM1.56098 15.4346H15.4341V9.29279H1.56098V15.4346ZM3.115 4.62963C3.61621 4.62963 4.09713 4.62963 4.57842 4.62963C5.09485 4.62963 5.39964 4.3334 5.40725 3.816C5.4145 3.32845 5.4145 2.84065 5.40725 2.35262C5.39964 1.86785 5.07854 1.55494 4.59545 1.55095C4.14388 1.54733 3.69196 1.55095 3.24003 1.55095C3.20016 1.55095 3.1603 1.55965 3.11536 1.56473L3.115 4.62963Z" fill="#292D32"/>
<path d="M6.18571 12.368C6.18571 12.8737 6.18571 13.3797 6.18571 13.8862C6.18571 14.3387 5.85954 14.6784 5.40507 14.6838C4.64014 14.6896 3.87533 14.6896 3.11065 14.6838C2.65981 14.6802 2.32349 14.3416 2.32131 13.8905C2.31672 12.8721 2.31672 11.8539 2.32131 10.8358C2.32131 10.4007 2.62175 10.0613 3.05411 10.0511C3.8548 10.0323 4.65561 10.0323 5.45654 10.0511C5.90375 10.0616 6.18462 10.397 6.18535 10.8521C6.18643 11.3557 6.18571 11.8619 6.18571 12.368ZM3.88222 11.6026V13.1182H4.62299V11.6026H3.88222Z" fill="#292D32"/>
<path d="M10.8159 12.3655C10.8159 12.8731 10.8159 13.3778 10.8159 13.884C10.8159 14.3394 10.4926 14.6773 10.0374 14.6817C9.27275 14.6889 8.50806 14.6878 7.74301 14.6817C7.63862 14.6833 7.53497 14.6639 7.43821 14.6247C7.34146 14.5854 7.25356 14.5272 7.17973 14.4533C7.10591 14.3795 7.04767 14.2915 7.00847 14.1947C6.96926 14.0979 6.94989 13.9942 6.9515 13.8898C6.94715 12.8717 6.94715 11.8534 6.9515 10.835C6.9515 10.3999 7.24941 10.0591 7.68213 10.0486C8.48861 10.0295 9.29534 10.0295 10.1023 10.0486C10.5296 10.0591 10.8148 10.3992 10.8159 10.8278C10.817 11.3416 10.8159 11.8524 10.8159 12.3655ZM8.51241 11.6041V13.1197H9.25608V11.6041H8.51241Z" fill="#292D32"/>
</svg>
