<svg width="18" height="18" viewBox="0 0 18 18" fill="none" xmlns="http://www.w3.org/2000/svg">
<path d="M10.5973 8.50502C10.8898 7.27502 9.8173 6.20247 8.5873 6.49497C8.0098 6.63747 7.5373 7.11 7.3948 7.68749C7.1023 8.91749 8.1748 9.98999 9.4048 9.69749C9.9898 9.55499 10.4623 9.08252 10.5973 8.50502Z" stroke="#292D32" stroke-width="1.5" stroke-linecap="round" stroke-linejoin="round"/>
<path d="M13.5077 12.8925C14.7902 11.6925 15.5927 9.98998 15.5927 8.09248C15.5927 4.44748 12.6377 1.5 9.00021 1.5C5.36271 1.5 2.40771 4.45498 2.40771 8.09248C2.40771 9.99748 3.21771 11.715 4.51521 12.915" stroke="#292D32" stroke-width="1.5" stroke-linecap="round" stroke-linejoin="round"/>
<path d="M5.99983 10.9125C5.30983 10.1775 4.88232 9.18748 4.88232 8.09248C4.88232 5.81998 6.72733 3.97499 8.99983 3.97499C11.2723 3.97499 13.1173 5.81998 13.1173 8.09248C13.1173 9.18748 12.6898 10.17 11.9998 10.9125" stroke="#292D32" stroke-width="1.5" stroke-linecap="round" stroke-linejoin="round"/>
<path d="M7.72505 12.495L6.64504 13.8375C5.79004 14.91 6.54754 16.4925 7.92004 16.4925H10.0725C11.445 16.4925 12.21 14.9025 11.3475 13.8375L10.2675 12.495C9.62254 11.6775 8.37755 11.6775 7.72505 12.495Z" stroke="#292D32" stroke-width="1.5" stroke-linecap="round" stroke-linejoin="round"/>
</svg>
